<svg xmlns="http://www.w3.org/2000/svg" width="190" height="190.86" viewBox="0 0 190 190.86">
  <g id="Counseling" transform="translate(-1 -1)">
    <path id="Path_3814" data-name="Path 3814" d="M98.422,50.691l7.137,7.137H81.18A24.289,24.289,0,0,1,60.1,45.638L84.089,9.25A24.394,24.394,0,0,1,98.422,50.691Z" transform="translate(30.181 4.119)" fill="#d4d8e1"/>
    <path id="Path_3815" data-name="Path 3815" d="M65,51.655a23.449,23.449,0,0,1-4.9-6L84.089,9.27a22.76,22.76,0,0,1,7.646,2.294A30.5,30.5,0,0,1,65,51.655Z" transform="translate(30.128 4.129)" fill="#c7cdd8"/>
    <path id="Path_3816" data-name="Path 3816" d="M70.134,1a24.379,24.379,0,0,1,0,48.757H45.711l7.137-7.152C37.629,27.388,48.3,1,70.134,1Z" transform="translate(22.844)" fill="#d4d8e1"/>
    <path id="Path_3817" data-name="Path 3817" d="M13.189,116.81v-48.8c0-8.1-12.189-7.976-12.189,0v91.458H13.189V129H46.7v30.466H58.888V116.81Z" transform="translate(0 32.395)" fill="#9b756d"/>
    <path id="Path_3818" data-name="Path 3818" d="M54.86,163.534V120.879H24.395A15.233,15.233,0,0,1,9.162,105.646c0-40.691-.855-41.291,2.564-46.044a13.584,13.584,0,0,1,11.14-5.757c.48,0-.75-.57,11.095,5.667,3.478,4.753,2.624,5.278,2.624,43.075l22.49,2.054a12.174,12.174,0,0,1,11.08,12.114v34.589l3.328.825a11.725,11.725,0,0,1,8.8,11.365Z" transform="translate(4.028 28.326)" fill="#7aa8d7"/>
    <path id="Path_3819" data-name="Path 3819" d="M36.6,90.467a16.672,16.672,0,0,1-13.374-4.8C14.453,76.958,11.484,74.274,9.07,71.321A91.4,91.4,0,0,1,9.4,61.86c.075-.7-1.844-.75,17,3.388h6.372L35.023,67.5l1.589-1.6C36.762,71.321,36.6,83.24,36.6,90.467Z" transform="translate(4.029 31.312)" fill="#5b8dc9"/>
    <path id="Path_3820" data-name="Path 3820" d="M134.089,116.81v-48.8c0-8.1,12.189-7.976,12.189,0v91.458H134.089V129h-33.51v30.466H88.39V116.81Z" transform="translate(44.722 32.395)" fill="#9b756d"/>
    <path id="Path_3821" data-name="Path 3821" d="M143.221,67.418v38.067a15.233,15.233,0,0,1-15.233,15.233H97.522v42.655H70.1a11.575,11.575,0,0,1,1.694-6.087c3.089-4.5,5.652-4.888,10.5-6.1V116.595a12.174,12.174,0,0,1,11.08-12.114l22.49-2.054V67.418a13.719,13.719,0,0,1,27.422,0Z" transform="translate(35.589 28.486)" fill="#7aa8d7"/>
    <path id="Path_3822" data-name="Path 3822" d="M132.6,97.713a16.687,16.687,0,0,1-12.189,5.293H99.091a10.5,10.5,0,0,1-7.721-3.238l13.809-1.259V81.836h10.735V62h16.612C132.631,63.139,132.6,60.246,132.6,97.713Z" transform="translate(46.21 31.662)" fill="#5b8dc9"/>
    <path id="Path_3823" data-name="Path 3823" d="M23.858,67.508A15.233,15.233,0,0,1,18.281,46.7l3-5.278A15.249,15.249,0,0,1,47.727,56.608l-3,5.278a15.233,15.233,0,0,1-20.87,5.622Z" transform="translate(7.608 16.983)" fill="#7aa8d7"/>
    <path id="Path_3824" data-name="Path 3824" d="M49.061,50.18c-.63,2.219-1.5,3.523-4.393,8.441A15.234,15.234,0,1,1,18.28,43.388C23.843,33.762,12.793,49.94,26.9,58.1a15.248,15.248,0,0,0,20.825-5.577Z" transform="translate(7.608 20.389)" fill="#5b8dc9"/>
    <path id="Path_3825" data-name="Path 3825" d="M113.783,66.018a15.233,15.233,0,0,0,15.233-15.233v-6.1a15.233,15.233,0,0,0-30.466,0v6.1a15.233,15.233,0,0,0,15.233,15.233Z" transform="translate(49.795 14.75)" fill="#7aa8d7"/>
    <path id="Path_3826" data-name="Path 3826" d="M129.016,39.61v6.1a15.233,15.233,0,0,1-30.466,0v-6.1a15.233,15.233,0,1,0,30.466,0Z" transform="translate(49.795 19.951)" fill="#5b8dc9"/>
    <path id="Path_3827" data-name="Path 3827" d="M132.04,62V86.334a12.174,12.174,0,0,1-12.189,12.174H98.531c-8.111,0-7.991-12.174,0-12.174h21.32V62Z" transform="translate(46.77 31.626)" fill="#7aa8d7"/>
    <path id="Path_3828" data-name="Path 3828" d="M56.239,70.545C45.429,81.43,41.41,86.738,36.493,86.738a12.084,12.084,0,0,1-10.18-3.448C13.928,70.9,10.1,68.3,9.25,62.3c0-.315-.435-.15,17.062,3.688l8.621,8.621C48.727,60.815,48.847,59.9,52.19,59.9a6.117,6.117,0,0,1,4.048,10.645Z" transform="translate(4.119 30.471)" fill="#7aa8d7"/>
    <rect id="Rectangle_694" data-name="Rectangle 694" width="12.189" height="9.146" transform="translate(1 182.714)" fill="#8a6762"/>
    <rect id="Rectangle_695" data-name="Rectangle 695" width="12.189" height="9.146" transform="translate(46.98 182.714)" fill="#8a6762"/>
    <rect id="Rectangle_696" data-name="Rectangle 696" width="12.189" height="9.146" transform="translate(132.831 182.714)" fill="#8a6762"/>
    <rect id="Rectangle_697" data-name="Rectangle 697" width="12.189" height="9.146" transform="translate(178.811 182.714)" fill="#8a6762"/>
    <path id="Path_3829" data-name="Path 3829" d="M67.032,129.027H39.61V122.94H65.338a11.575,11.575,0,0,1,1.694,6.087Z" transform="translate(19.668 62.832)" fill="#5b8dc9"/>
    <path id="Path_3830" data-name="Path 3830" d="M97.522,122.94v6.087H70.1a11.575,11.575,0,0,1,1.694-6.087Z" transform="translate(35.2 62.832)" fill="#5b8dc9"/>
    <path id="Path_3831" data-name="Path 3831" d="M64.968,18.009a2.249,2.249,0,1,1-2.249-2.249A2.249,2.249,0,0,1,64.968,18.009Z" transform="translate(30.22 7.37)" fill="#949aaf"/>
    <path id="Path_3832" data-name="Path 3832" d="M56.838,18.009a2.249,2.249,0,1,1-2.249-2.249A2.249,2.249,0,0,1,56.838,18.009Z" transform="translate(26.088 7.37)" fill="#949aaf"/>
    <path id="Path_3833" data-name="Path 3833" d="M73.1,18.009a2.249,2.249,0,1,1-2.249-2.249A2.249,2.249,0,0,1,73.1,18.009Z" transform="translate(34.351 7.37)" fill="#949aaf"/>
  </g>
</svg>
