<svg xmlns="http://www.w3.org/2000/svg" width="632.123" height="742.518" viewBox="0 0 632.123 742.518">
  <g id="Layer_2" data-name="Layer 2" transform="translate(-3 0.002)">
    <g id="Слой_1" data-name="Слой 1" transform="translate(3 -0.002)">
      <g id="_3" data-name="3" transform="translate(0)">
        <g id="CHAIR" transform="translate(356.854 250.778)">
          <path id="Path_501" data-name="Path 501" d="M355.257,899.61l-86.544,93.318a40.68,40.68,0,0,0-15.633,32.051v98.156a22.518,22.518,0,0,0,22.518,22.518H388.169" transform="translate(-253.08 -656.913)" fill="none" stroke="#d8baa3" stroke-linecap="round" stroke-miterlimit="10" stroke-width="6"/>
          <path id="Path_502" data-name="Path 502" d="M3,685.056H3a14.811,14.811,0,0,0,14.811,14.811H231.66a43.383,43.383,0,0,0,43.379-43.373V486.764a29.588,29.588,0,0,0-29.621-29.594h-109.8a20.2,20.2,0,0,0-20.2,20.2v149.5A43.373,43.373,0,0,1,72.04,670.246H17.811A14.811,14.811,0,0,0,3,685.056Z" transform="translate(-2.77 -457.17)" fill="#fff" stroke="#d8baa3" stroke-linecap="round" stroke-miterlimit="10" stroke-width="6"/>
          <path id="Path_503" data-name="Path 503" d="M3,691.827A14.811,14.811,0,0,0,17.224,702.5H231.073a43.383,43.383,0,0,0,43.379-43.373V489.4a29.619,29.619,0,0,0-16.187-26.393,29.473,29.473,0,0,1,4.668,15.97V655.343A36.752,36.752,0,0,1,226.18,692.1H5.666A14.207,14.207,0,0,1,3,691.827Z" transform="translate(-2.183 -459.805)" fill="#f0e1d4" stroke="#d8baa3" stroke-linecap="round" stroke-miterlimit="10" stroke-width="6"/>
          <path id="Path_504" data-name="Path 504" d="M406.749,660.89H366.157A71.184,71.184,0,0,0,295,732.074v49.369" transform="translate(-294.654 -549.141)" fill="none" stroke="#d8baa3" stroke-linecap="round" stroke-miterlimit="10" stroke-width="6"/>
          <path id="Path_505" data-name="Path 505" d="M184.257,899.61,97.713,992.928a40.68,40.68,0,0,0-15.633,32.051v98.156a22.518,22.518,0,0,0,22.518,22.518H217.17" transform="translate(11.721 -656.913)" fill="none" stroke="#d8baa3" stroke-linecap="round" stroke-miterlimit="10" stroke-width="6"/>
        </g>
        <g id="CHARACTER">
          <g id="RIGHT_HAND" data-name="RIGHT HAND" transform="translate(215.879 137.786)">
            <path id="HAND" d="M497.655,251.39s-40.526-6.034-64.876,47.208c-21.327,46.626-37.23,90.109-37.23,90.109S362.68,407.089,307.4,426.765V453.15s84.316,4.9,112.451,0c20.686-3.6,77.767-80.164,81.733-132.1S497.655,251.39,497.655,251.39Z" transform="translate(-256.428 -251.184)" fill="#374486"/>
            <path id="ARM" d="M702.456,597.224c3.121-.631.845-10.335-.987-16.319-1.015-3.291-3.439-4.981-6.67-6.4-6.429-2.842-17.553-4.5-23.823-3.127-9.2,2.013-15.118,6.111-20.845,12.808-1.646,1.914-9.737,11.125-9.737,13.582Z" transform="translate(-640.394 -395.517)" fill="#fab6ad"/>
          </g>
          <path id="TORSO" d="M182.349,211.912c34.942,3.6,102.4,46.023,91.234,201.8-7.131,99.615-72.534,149.533-80.438,146.143S51.116,490.363,81.84,454.8c29.4-34.01,19.83-60.032,15.206-106.088s-11.574-96.176,25.782-113.521C183.358,207.1,173.007,210.947,182.349,211.912Z" transform="translate(313.566 -95.34)" fill="#3f4d90"/>
          <g id="LEGS" transform="translate(0 339.756)">
            <g id="RIGHT_LEG" data-name="RIGHT LEG" transform="translate(213.117 12.23)">
              <g id="SHOES" transform="translate(2.619 342.223)">
                <path id="Path_506" data-name="Path 506" d="M582.087,1343.218h95.545c.1-1.525.126-2.973.1-4.388H581.977A22.311,22.311,0,0,0,582.087,1343.218Z" transform="translate(-581.917 -1298.633)" fill="#383c4d"/>
                <path id="Path_507" data-name="Path 507" d="M667.961,1265.55c-.34,10.872,9.731,17.756,9.731,40.219h-95.54s-1.388-18.842,17.718-23.187,36.478-10.148,38.217-17Z" transform="translate(-581.982 -1265.55)" fill="#3d3d5a"/>
              </g>
              <g id="PANT">
                <path id="Path_508" data-name="Path 508" d="M428.873,642.555s-145.825-9.512-181.26,33.96,33.351,214.535,40.3,308.736c0,0,34.893,3.62,49.062,0s26.5-186.159-9.194-230.355c0,0,130.235,32.556,183.142-8.508S450.892,643.323,428.873,642.555Z" transform="translate(-237.528 -641.673)" fill="#383c4d"/>
              </g>
            </g>
            <g id="LEFT_LEG" data-name="LEFT LEG">
              <g id="SHOE" transform="translate(0 234.613)">
                <path id="Path_509" data-name="Path 509" d="M1006.43,1068.752l75.787,60.663c1.1-1.366,2.041-2.7,2.913-4L1009.639,1065a21.776,21.776,0,0,0-3.209,3.752Z" transform="translate(-1006.43 -1055.17)" fill="#41465a"/>
                <path id="Path_510" data-name="Path 510" d="M1068.836,1079.4c-6.615,8.4-2.644,20.263-15.754,38.08l-75.792-60.658s9.874-15.831,27.592-7.131,34.86,15.118,40.258,10.757Z" transform="translate(-974.152 -1047.081)" fill="#3d3d5a"/>
              </g>
              <g id="PANT-2" data-name="PANT" transform="translate(66.692)">
                <path id="Path_511" data-name="Path 511" d="M661.4,740.689c-2.194,12.271-120.805,47.493-252.823-39.457,0,0-20.483,114.689-153.894,190.772,0,0-29.374-13.055-37.361-30.631,0,0,94.113-120.29,127.624-217.771,14.076-40.888,191.112-19.5,216.992-11.113S671.144,686.011,661.4,740.689Z" transform="translate(-217.324 -619.378)" fill="#41465a"/>
              </g>
            </g>
          </g>
          <g id="LEFT_HAND" data-name="LEFT HAND" transform="translate(250.679 154.015)">
            <path id="HAND-2" data-name="HAND" d="M342.22,283.183c-30.548,10.148-73.543,100.542-73.543,100.542s-48.118,4.613-120.943,35.107c0,0-1.679,15.847,7.915,28.831,0,0,80.087,10.378,121.744,6.116,14.087-1.454,67.465-41.382,96.812-96.637C400.447,307.72,379.537,270.792,342.22,283.183Z" transform="translate(-86.818 -280.77)" fill="#49549a"/>
            <g id="ARM-2" data-name="ARM" transform="translate(0 129.71)">
              <path id="Path_512" data-name="Path 512" d="M634.372,526.09s-20.3-10.719-29.8-8.574-20.96,10.719-22.15,13.1-9.528,14.054-9.528,16.67,26.944,1.646,30.718,1.646,28.705.4,33.516-.6S634.372,526.09,634.372,526.09Z" transform="translate(-572.892 -517.233)" fill="#ffcfc9"/>
              <path id="Path_513" data-name="Path 513" d="M665.838,549.205c-3.8,0-30.718.954-30.718-1.646s8.338-14.262,9.528-16.67,12.617-10.971,22.15-13.1c0,0-11.761,16.33-.938,31.437" transform="translate(-635.098 -517.484)" fill="#fab6ad"/>
            </g>
          </g>
          <g id="HEAD" transform="translate(384.931)">
            <path id="Path_514" data-name="Path 514" d="M282.9,122.5c-.609,4.739,9.962,28.579,28.82,47.114,16.55,16.253-54.635,28.831-56.5,28.42s-10.175-25.441-11.881-31.305S282.9,122.5,282.9,122.5Z" transform="translate(-201.824 -55.303)" fill="#ffcfc9"/>
            <path id="Path_515" data-name="Path 515" d="M301.522,167.469c.735,2.529,3.675,10.79,6.928,19.4,7.855-3.8,17.054-11.251,24.251-25.43,7.795-15.359,6.824-31.053,7.756-35.107a4.63,4.63,0,0,0-.351-2.194C333.9,129.982,299.975,162.138,301.522,167.469Z" transform="translate(-260.005 -56.043)" fill="#fab6ad"/>
            <path id="Path_516" data-name="Path 516" d="M303.914,68.364c-2.968,11.821-5.579,31.64-1.541,41.261s11.163,27.3,13.955,28.228,33.505-3.1,40.636-16.456,7.449-24.509,8.376-28.524-15.82-36.61-37.224-35.99S304.775,64.935,303.914,68.364Z" transform="translate(-284.267 -25.675)" fill="#ffcfc9"/>
            <path id="Path_517" data-name="Path 517" d="M243.371,36.823c5.688,2.331,1.377,8.93,12.068,9.918S268.6,34.623,268.6,34.623a10.427,10.427,0,0,0,6.582,7.027s-2.858-5.551,1.24-8,6.615.828,6.615.828,3.571-1.788,5.485,2.479-1.536,6.824-6.034,7.312c0,0-.411,6.341,9.649,7.307s12.134-5.239,12.134-5.239,1.646-1.519,2.348,2.9-2.743,11.58,4.273,17.235c2.8,2.255,4.388,3.149,5.228,3.406-3.538,3.061-1.827,12.353,6.193,16.144,10.889,5.151,18.875,1.344,19.868-6.182.894-6.8-3.439-4.131-2.331-9.369,0,0,7.093,5.189,11.684-2.37,3.752-6.177-2.809-10.044-2.809-10.044s4.674-6.407.79-10.883c-4.388-5.107-11.251-1.8-10.247-4.97s3.626-10.62-.642-14.778-11.037-2.485-12-4.69.406-5.485,4.816-3.571a9.83,9.83,0,0,0-4.388-7.043c-3.911-2.638-9.709-2.024-13.714-.85-.68-3.593-2.375-7.981-6.709-10.022-7.18-3.363-12.3.735-15.107,4.235a6.7,6.7,0,0,0-5.7-4.525c-8.546-1.24-15.579.982-17.224,7.872-1.739,7.257-14.432-9.473-20.406,4.827-1.223,2.924,1.969,5.233-1.646,7.586-2.046,1.333-4.674-3.017-2.628-4.542a12.4,12.4,0,0,0-6.039,5.332C236.789,23.965,234.205,33.076,243.371,36.823Z" transform="translate(-236.698 0.002)" fill="#362500"/>
          </g>
        </g>
        <path id="CHAIR-2" data-name="CHAIR" d="M144.526,660.89H95.157A71.184,71.184,0,0,0,24,732.074v49.369" transform="translate(473.078 -298.363)" fill="none" stroke="#d8baa3" stroke-linecap="round" stroke-miterlimit="10" stroke-width="6"/>
        <g id="TABLE" transform="translate(68.157 331.902)">
          <path id="Path_518" data-name="Path 518" d="M495.42,605.06h282.9a7.954,7.954,0,0,1,7.954,7.954h0a7.954,7.954,0,0,1-7.954,7.954H495.42Z" transform="translate(-495.42 -605.06)" fill="#fff"/>
          <path id="Path_519" data-name="Path 519" d="M495.42,605.06h282.9a7.954,7.954,0,0,1,7.954,7.954h0a7.954,7.954,0,0,1-7.954,7.954H495.42" transform="translate(-495.42 -605.06)" fill="none" stroke="#d8baa3" stroke-miterlimit="10" stroke-width="6"/>
          <path id="Path_520" data-name="Path 520" d="M919.786,1027.086,874.115,644.45c-1.448-8.157-13.055-8.415-14.86-.329l-56.895,380.82" transform="translate(-797.302 -620.018)" fill="none" stroke="#d8baa3" stroke-linecap="round" stroke-miterlimit="10" stroke-width="6"/>
        </g>
        <g id="LAPTOP" transform="translate(47.134 204.662)">
          <rect id="Rectangle_42" data-name="Rectangle 42" width="228.347" height="14.021" rx="7.01" transform="translate(45.981 112.517)" fill="#fff" stroke="#d8baa3" stroke-miterlimit="10" stroke-width="6"/>
          <path id="Path_521" data-name="Path 521" d="M713.225,485.376H872.73c4.125,0,6.9-3.966,5.233-7.5l-45.057-95.841a16.077,16.077,0,0,0-14.641-8.936H658.755c-4.125,0-6.89,3.966-5.228,7.5l45.057,95.836A16.07,16.07,0,0,0,713.225,485.376Z" transform="translate(-653.037 -373.1)" fill="#fff" stroke="#d8baa3" stroke-miterlimit="10" stroke-width="6"/>
        </g>
      </g>
    </g>
  </g>
</svg>
