<svg xmlns="http://www.w3.org/2000/svg" width="748.789" height="632.06" viewBox="0 0 748.789 632.06">
  <path id="Path_4124" data-name="Path 4124" d="M1104.5,215.585l-4.515-7.242c-37.924-61.114-106.48-97.964-178.76-93.482a192.362,192.362,0,0,0-27.675,3.709c-65.712,13.755-122.891,62.373-146.593,124.613-13.928,36.607-17.833,78.755-44.289,107.833C668.243,388.837,609.8,390.008,558.4,388.44s-109.866-.221-144.132,37.755c-21.445,23.779-28.262,57.582-26.524,89.441,4.515,84.3,64.628,159.7,141.017,197.164S695.106,753.624,778.7,737.087c117.157-23.028,228.467-86.439,295.488-184.314S1158.067,321.3,1104.5,215.585Z" transform="translate(-387.485 -114.494)" fill="rgba(117,121,231,0.6)"/>
</svg>
