<svg xmlns="http://www.w3.org/2000/svg" xmlns:xlink="http://www.w3.org/1999/xlink" width="190" height="190" viewBox="0 0 190 190">
  <defs>
    <linearGradient id="linear-gradient" x1="-0.001" y1="0.502" x2="1" y2="0.502" gradientUnits="objectBoundingBox">
      <stop offset="0" stop-color="#454b60"/>
      <stop offset="1" stop-color="#575f7c"/>
    </linearGradient>
    <linearGradient id="linear-gradient-2" x1="0.002" y1="0.494" x2="1.005" y2="0.494" xlink:href="#linear-gradient"/>
    <linearGradient id="linear-gradient-3" x1="-0.005" y1="0.497" x2="0.985" y2="0.497" xlink:href="#linear-gradient"/>
  </defs>
  <g id="Problem_Solving" data-name="Problem Solving" transform="translate(-1 -1)">
    <path id="Path_3813" data-name="Path 3813" d="M27,0A27,27,0,0,1,42.018,49.44,26.541,26.541,0,0,1,27,54,27,27,0,0,1,27,0Z" transform="translate(137.001 137.001)" fill="#7579e7"/>
    <path id="Path_3812" data-name="Path 3812" d="M27,0A27,27,0,1,1,0,27,27,27,0,0,1,27,0Z" transform="translate(1 1)" fill="#7579e7"/>
    <path id="Path_3797" data-name="Path 3797" d="M117.419,136.662A27,27,0,0,1,90.582,106.71a27,27,0,0,0,53.674,0,27,27,0,0,1-26.837,29.952Z" transform="translate(46.581 54.338)" fill="#2d5dbf"/>
    <path id="Path_3798" data-name="Path 3798" d="M28,47.242A27,27,0,0,1,1.162,17.29a27,27,0,0,0,53.674,0A27,27,0,0,1,28,47.242Z" transform="translate(0 7.757)" fill="#2d5dbf"/>
    <path id="Path_3799" data-name="Path 3799" d="M105.382,117.67H179.09V7.1H80.853V68.521H7.1V179.09h98.237Z" transform="translate(2.905 2.905)" fill="#d4d8e1"/>
    <path id="Path_3800" data-name="Path 3800" d="M102.39,118.366a1.482,1.482,0,0,1,2.1-2.1,10.525,10.525,0,0,0,14.88,0,1.482,1.482,0,0,1,2.1,2.1A13.507,13.507,0,0,1,102.39,118.366Z" transform="translate(52.074 58.684)" fill="#454b60"/>
    <path id="Path_3801" data-name="Path 3801" d="M99.58,108.109v-2.952a1.476,1.476,0,1,1,2.952,0v2.952a1.476,1.476,0,1,1-2.952,0Z" transform="translate(50.123 52.895)" fill="#454b60"/>
    <path id="Path_3802" data-name="Path 3802" d="M115.84,108.109v-2.952a1.476,1.476,0,1,1,2.952,0v2.952a1.476,1.476,0,1,1-2.952,0Z" transform="translate(58.686 52.895)" fill="#454b60"/>
    <path id="Path_3803" data-name="Path 3803" d="M103.573,166.352H81.046V131.839a1.476,1.476,0,0,0-1.476-1.476h-24a1.476,1.476,0,1,0,0,2.952H78.094v9.049H45.042v-21.05H55.567a1.476,1.476,0,1,0,0-2.952h-12a1.476,1.476,0,0,0-1.476,1.476v22.527H31.564a1.476,1.476,0,1,0,0,2.952h46.53v21.036H9.052V85.31H55.567a1.476,1.476,0,0,0,1.476-1.476v-12a1.476,1.476,0,0,0-1.476-1.476H22.574a1.476,1.476,0,0,0,0,2.952H54.091v9.049H9.052V61.307h94.476A1.476,1.476,0,0,0,105,59.83v-12a1.476,1.476,0,1,0-2.952,0V58.354H81.046V25.3h34.528a1.476,1.476,0,0,0,0-2.952h-36a1.476,1.476,0,0,0-1.476,1.476V58.354H7.576A1.476,1.476,0,0,0,6.1,59.83v108A1.476,1.476,0,0,0,7.576,169.3h95.952a1.476,1.476,0,0,0,.044-2.952Z" transform="translate(2.429 14.167)" fill="#454b60"/>
    <path id="Path_3804" data-name="Path 3804" d="M152.343,6.1H56.39a1.476,1.476,0,1,0,0,2.952h94.476v93H68.348a1.476,1.476,0,0,0,0,2.952h82.519v9.049h-93V93.048h82.519a1.476,1.476,0,1,0,0-2.952H56.346a1.476,1.476,0,0,0-1.476,1.476v24a1.476,1.476,0,0,0,1.476,1.476H78.873v34.528a1.476,1.476,0,0,0,2.952,0V117.05h70.518a1.476,1.476,0,0,0,1.476-1.476v-108A1.476,1.476,0,0,0,152.343,6.1Z" transform="translate(29.652 2.429)" fill="#454b60"/>
    <path id="Path_3805" data-name="Path 3805" d="M103.573,162.85c-.148-.394.5.348-9.315-9.72a1.449,1.449,0,0,0-2,.079,1.543,1.543,0,0,0-.077,2.055l6.48,6.647H73.7v-35.4A1.5,1.5,0,0,0,72.219,125H49.692V78.789h94.476a1.5,1.5,0,0,0,1.476-1.514V15.744a1.5,1.5,0,0,0-1.476-1.514H48.216a1.515,1.515,0,0,0,0,3.028h94.476v58.5H48.216a1.5,1.5,0,0,0-1.476,1.514v49.237a1.5,1.5,0,0,0,1.476,1.514H70.743v35.4a1.5,1.5,0,0,0,1.476,1.514H98.658l-6.48,6.647a1.542,1.542,0,0,0-.324,1.656,1.476,1.476,0,0,0,1.372.933c.841,0,.354.257,10.038-9.675A1.543,1.543,0,0,0,103.573,162.85Z" transform="translate(25.781 6.3)" fill="#7579e7"/>
    <path id="Path_3806" data-name="Path 3806" d="M27.693,83.131a1.476,1.476,0,0,0-1.476,1.476v24a1.476,1.476,0,0,0,2.952,0V86.084H51.7a1.476,1.476,0,0,0,1.476-1.476v-12A1.476,1.476,0,0,0,51.7,71.13H15.706a1.476,1.476,0,0,0-1.476,1.476V132.6a1.476,1.476,0,0,0,1.476,1.476H63.7a1.476,1.476,0,1,0,0-2.952H17.182V74.082H50.22v9.049Z" transform="translate(6.3 37.395)" fill="#454b60"/>
    <path id="Path_3807" data-name="Path 3807" d="M114.345,59.83v-36a1.476,1.476,0,0,0-1.476-1.476h-24a1.476,1.476,0,0,0-1.476,1.476v24a1.476,1.476,0,1,0,2.952,0V25.3h21.05V59.83a1.476,1.476,0,1,0,2.952,0Z" transform="translate(44.345 11.024)" fill="#454b60"/>
    <path id="Path_3808" data-name="Path 3808" d="M89.955,31.956a1.476,1.476,0,0,0-1.476-1.476h-24A1.476,1.476,0,0,0,63,31.956v12a1.476,1.476,0,0,0,2.952,0V33.432H87V55.959a1.476,1.476,0,0,0,1.476,1.476h24a1.476,1.476,0,0,0,1.476-1.476v-24a1.476,1.476,0,1,0-2.952,0V54.483H89.955Z" transform="translate(32.235 15.133)" fill="#454b60"/>
    <path id="Path_3809" data-name="Path 3809" d="M29.945,30.4a10.54,10.54,0,0,0-14.88,0,1.477,1.477,0,0,1-2.1-2.081c8.547-8.532,21.966-.812,19.072,2.081a1.476,1.476,0,0,1-2.1,0Z" transform="translate(5.495 11.923)" fill="url(#linear-gradient)"/>
    <path id="Path_3810" data-name="Path 3810" d="M9.613,20.161a1.476,1.476,0,0,1-.664-2.8L14.957,14.4a1.476,1.476,0,0,1,1.314,2.642C9.8,20.235,10.1,20.161,9.613,20.161Z" transform="translate(3.388 6.318)" fill="url(#linear-gradient-2)"/>
    <path id="Path_3811" data-name="Path 3811" d="M31.849,20.175c-.5,0-.236,0-6.658-3.159a1.476,1.476,0,0,1,1.314-2.642l6.008,2.952a1.476,1.476,0,0,1-.664,2.849Z" transform="translate(11.93 6.304)" fill="url(#linear-gradient-3)"/>
  </g>
</svg>
