<svg xmlns="http://www.w3.org/2000/svg" width="190" height="189.992" viewBox="0 0 190 189.992">
  <g id="Support_System" data-name="Support System" transform="translate(-1 -1.005)">
    <path id="Path_3759" data-name="Path 3759" d="M154.525,108.722V148.41H72.13V84.32h57.978A24.4,24.4,0,0,1,154.525,108.722Z" transform="translate(36.475 42.587)" fill="#7aa8d7"/>
    <path id="Path_3760" data-name="Path 3760" d="M83.395,84.32v64.09H1V108.722a24.4,24.4,0,0,1,24.417-24.4Z" transform="translate(0 42.587)" fill="#7aa8d7"/>
    <rect id="Rectangle_692" data-name="Rectangle 692" width="190" height="6.097" transform="translate(1 184.886)" fill="#5b8dc9"/>
    <path id="Path_3761" data-name="Path 3761" d="M66.063,84.32v64.09H35.55V108.722a30.452,30.452,0,0,1,12.235-24.4Z" transform="translate(17.591 42.587)" fill="#5b8dc9"/>
    <path id="Path_3762" data-name="Path 3762" d="M102.643,108.722V148.41H72.13V84.32H90.4a30.453,30.453,0,0,1,12.238,24.4Z" transform="translate(36.216 42.587)" fill="#5b8dc9"/>
    <path id="Path_3763" data-name="Path 3763" d="M112.86,108.722V148.41H39.61V108.722a24.4,24.4,0,0,1,24.417-24.4H88.443A24.4,24.4,0,0,1,112.86,108.722Z" transform="translate(19.765 42.587)" fill="#9dd5df"/>
    <path id="Path_3764" data-name="Path 3764" d="M33.535,99.625A18.3,18.3,0,0,1,15.23,81.3v-9.19a18.3,18.3,0,1,1,36.61,0V81.26a18.32,18.32,0,0,1-18.3,18.365Z" transform="translate(7.138 26.928)" fill="#7aa8d7"/>
    <path id="Path_3765" data-name="Path 3765" d="M106.695,99.625A18.32,18.32,0,0,1,88.39,81.3v-9.19a18.3,18.3,0,1,1,36.61,0V81.26a18.32,18.32,0,0,1-18.3,18.365Z" transform="translate(44.632 26.928)" fill="#7aa8d7"/>
    <path id="Path_3766" data-name="Path 3766" d="M70.115,99.625A18.32,18.32,0,0,1,51.81,81.3v-9.19a18.3,18.3,0,1,1,36.61,0V81.26a18.32,18.32,0,0,1-18.3,18.365Z" transform="translate(25.885 26.928)" fill="#9dd5df"/>
    <path id="Path_3767" data-name="Path 3767" d="M51.84,68.06v6.1a18.3,18.3,0,1,1-36.61,0v-6.1a18.3,18.3,0,1,0,36.61,0Z" transform="translate(7.138 34.122)" fill="#5b8dc9"/>
    <path id="Path_3768" data-name="Path 3768" d="M125,68.06v6.1a18.3,18.3,0,1,1-36.61,0v-6.1a18.3,18.3,0,1,0,36.61,0Z" transform="translate(44.632 34.122)" fill="#5b8dc9"/>
    <path id="Path_3769" data-name="Path 3769" d="M88.42,68.06v6.1a18.3,18.3,0,1,1-36.61,0v-6.1a18.3,18.3,0,1,0,36.61,0Z" transform="translate(25.885 34.122)" fill="#77cacb"/>
    <path id="Path_3770" data-name="Path 3770" d="M77.253,11.389C66.126-7.141,37.58.742,37.58,22.351c0,24.417,39.673,45.77,39.673,45.77s39.673-21.353,39.673-45.77C116.927.757,88.38-7.156,77.253,11.389Z" transform="translate(18.747)" fill="#db72b8"/>
    <path id="Path_3771" data-name="Path 3771" d="M109.635,26.07C98.808,42.978,75.427,55.547,75.427,55.547S52.047,42.978,41.22,26.07a48.052,48.052,0,0,0,34.207,14.3A48.052,48.052,0,0,0,109.635,26.07Z" transform="translate(20.573 12.76)" fill="#d861b0"/>
    <rect id="Rectangle_693" data-name="Rectangle 693" width="73.25" height="6.097" transform="translate(59.375 184.886)" fill="#77cacb"/>
    <path id="Path_3772" data-name="Path 3772" d="M51.773,99.052v42.722h-3V99.052a1.5,1.5,0,0,1,3,0Z" transform="translate(24.269 49.224)" fill="#77cacb"/>
    <path id="Path_3773" data-name="Path 3773" d="M13.163,99.052v42.722h-3V99.052a1.5,1.5,0,0,1,3,0Z" transform="translate(4.595 49.224)" fill="#5b8dc9"/>
    <path id="Path_3774" data-name="Path 3774" d="M80.233,99.052v42.722h-3V99.052a1.5,1.5,0,0,1,3,0Z" transform="translate(38.728 49.224)" fill="#77cacb"/>
    <path id="Path_3775" data-name="Path 3775" d="M118.843,99.052v42.722h-3V99.052a1.5,1.5,0,0,1,3,0Z" transform="translate(58.402 49.224)" fill="#5b8dc9"/>
    <path id="Path_3776" data-name="Path 3776" d="M60.558,74.786a1.5,1.5,0,0,1,2.117,0,4.715,4.715,0,0,0,6.517,0,1.5,1.5,0,0,1,2.117,2.132C66.264,81.979,58.231,77.113,60.558,74.786Z" transform="translate(30.066 37.266)" fill="#77cacb"/>
    <path id="Path_3777" data-name="Path 3777" d="M97.138,74.786a1.5,1.5,0,0,1,2.117,0,4.715,4.715,0,0,0,6.517,0,1.5,1.5,0,1,1,2.117,2.132C102.844,81.979,94.811,77.113,97.138,74.786Z" transform="translate(48.661 37.266)" fill="#5b8dc9"/>
    <path id="Path_3778" data-name="Path 3778" d="M23.978,74.786a1.5,1.5,0,0,1,2.117,0,4.715,4.715,0,0,0,6.517,0,1.5,1.5,0,0,1,2.117,2.132C29.684,81.979,21.651,77.113,23.978,74.786Z" transform="translate(11.471 37.266)" fill="#5b8dc9"/>
    <path id="Path_3779" data-name="Path 3779" d="M88.9,21.312a1.5,1.5,0,0,1-1.5-1.5A10.707,10.707,0,0,0,76.692,9.1a1.5,1.5,0,1,1,0-3C88.975,6.1,93.09,21.312,88.9,21.312Z" transform="translate(37.725 2.556)" fill="#f2b1d9"/>
  </g>
</svg>
