<svg id="freepik--character-2--inject-193" xmlns="http://www.w3.org/2000/svg" width="667" height="516.601" viewBox="0 0 667 516.601">
  <rect id="Rectangle_698" data-name="Rectangle 698" width="666.268" height="515.657" transform="translate(0.385 0.501)" fill="#c9e4f0"/>
  <rect id="Rectangle_699" data-name="Rectangle 699" width="349.865" height="299.777" transform="translate(41.631 75.229)" fill="#455a64"/>
  <path id="Path_3836" data-name="Path 3836" d="M669.44,388.738V367.219c0-14.025,0-34.58-.1-60.78,0-52.342-.135-127.147-.212-217.459l.4.424H319.71l.5-.5V388.661l-.443-.443,253.022.231,71.414.116h.019l-71.279.116-253.311.212h-.443V88.19H669.961v.424c0,90.332-.154,165.31-.212,217.691,0,26.161,0,46.678-.116,60.684V382.92C669.633,386.542,669.44,388.738,669.44,388.738Z" transform="translate(-277.925 -13.751)" fill="#263238"/>
  <path id="Path_3837" data-name="Path 3837" d="M385.982,255.126V240.774c0-9.093,0-22.039-.116-37.585l.212.231H334.1l.25-.25v52.015l-.212-.212,37.566.116H385.1l-2.832.039H371.726l-37.624.193h-.212V202.88h52.227v.231c0,15.6,0,28.589-.1,37.72v13.986a1.063,1.063,0,0,1-.039.308Z" transform="translate(-264.306 92.505)" fill="#fff"/>
  <path id="Path_3838" data-name="Path 3838" d="M385.88,261.592l.4-.27,1.194-.771,4.585-2.89,16.914-10.538-.1.154V196.131l.25.25H357.811l-17.338,9.825-4.778,2.659-1.252.674-.443.039.4-.25,1.214-.732,4.72-2.736,17.338-9.96h51.572v51.437h-.1l-16.972,10.4c-1.926,1.194-3.564,2.158-4.643,2.813l-1.233.713Z" transform="translate(-264.204 86.038)" fill="#fff"/>
  <path id="Path_3839" data-name="Path 3839" d="M384.2,196c0,.116-5.067,3.236-11.559,6.974s-11.559,6.685-11.732,6.55,5.067-3.236,11.559-6.974S384.087,196,384.2,196Z" transform="translate(-239.275 86.131)" fill="#fff"/>
  <path id="Path_3840" data-name="Path 3840" d="M336.448,228.894a2.807,2.807,0,0,1-1.117.925c-.674.385-1.291.616-1.349.5s.424-.539,1.1-.925S336.371,228.779,336.448,228.894Z" transform="translate(-264.225 116.579)" fill="#fff"/>
  <path id="Path_3841" data-name="Path 3841" d="M338.989,227.424c0,.135-.424.539-1.1.925s-1.291.616-1.349.5.424-.539,1.1-.925S338.931,227.309,338.989,227.424Z" transform="translate(-261.853 115.217)" fill="#fff"/>
  <path id="Path_3842" data-name="Path 3842" d="M341.56,226.034a2.7,2.7,0,0,1-1.1.905c-.674.385-1.291.617-1.368.5s.443-.52,1.117-.925S341.5,225.822,341.56,226.034Z" transform="translate(-259.492 113.89)" fill="#fff"/>
  <path id="Path_3843" data-name="Path 3843" d="M344.12,224.5c0,.116-.424.52-1.117.925s-1.271.6-1.349.482.424-.52,1.117-.925S344.043,224.38,344.12,224.5Z" transform="translate(-257.12 112.501)" fill="#fff"/>
  <path id="Path_3844" data-name="Path 3844" d="M346.678,223a2.807,2.807,0,0,1-1.117.925c-.674.385-1.291.616-1.349.482s.424-.52,1.1-.905A3.983,3.983,0,0,1,346.678,223Z" transform="translate(-254.747 111.145)" fill="#fff"/>
  <path id="Path_3845" data-name="Path 3845" d="M346.25,220.43c.154,0,.25.636.25,1.406s-.135,1.426-.27,1.426-.231-.636-.231-1.426S346.116,220.43,346.25,220.43Z" transform="translate(-253.087 108.764)" fill="#fff"/>
  <path id="Path_3846" data-name="Path 3846" d="M346.29,217.48c.135,0,.231.636.231,1.426s-.116,1.406-.25,1.406-.25-.636-.25-1.426S346.155,217.48,346.29,217.48Z" transform="translate(-253.068 106.031)" fill="#fff"/>
  <path id="Path_3847" data-name="Path 3847" d="M346.3,214.53c.135,0,.25.636.231,1.426s-.116,1.406-.25,1.406-.25-.636-.231-1.406S346.167,214.53,346.3,214.53Z" transform="translate(-253.041 103.298)" fill="#fff"/>
  <path id="Path_3848" data-name="Path 3848" d="M346.32,211.58c.154,0,.25.636.25,1.426s-.135,1.406-.27,1.406-.231-.636-.231-1.406S346.186,211.58,346.32,211.58Z" transform="translate(-253.022 100.565)" fill="#fff"/>
  <path id="Path_3849" data-name="Path 3849" d="M346.36,208.63c.135,0,.231.636.231,1.426s-.116,1.426-.25,1.426-.25-.655-.25-1.426S346.225,208.63,346.36,208.63Z" transform="translate(-253.003 97.832)" fill="#fff"/>
  <path id="Path_3850" data-name="Path 3850" d="M346.371,205.68c.135,0,.25.636.231,1.426s-.116,1.426-.25,1.426-.25-.636-.231-1.426S346.237,205.68,346.371,205.68Z" transform="translate(-252.976 95.099)" fill="#fff"/>
  <path id="Path_3851" data-name="Path 3851" d="M346.39,202.73c.135,0,.25.636.25,1.426s-.135,1.426-.27,1.426-.231-.636-.231-1.426S346.256,202.73,346.39,202.73Z" transform="translate(-252.957 92.366)" fill="#fff"/>
  <path id="Path_3852" data-name="Path 3852" d="M346.43,199.78c.135,0,.231.655.231,1.426s-.116,1.426-.25,1.426-.25-.636-.25-1.426S346.295,199.78,346.43,199.78Z" transform="translate(-252.938 89.633)" fill="#fff"/>
  <path id="Path_3853" data-name="Path 3853" d="M346.441,196.84c.135,0,.25.636.231,1.406s-.116,1.426-.25,1.426-.25-.636-.231-1.426S346.307,196.821,346.441,196.84Z" transform="translate(-252.912 86.909)" fill="#fff"/>
  <path id="Path_3854" data-name="Path 3854" d="M371.5,222.68c0-.135.636-.25,1.406-.25s1.426.116,1.426.25-.636.25-1.426.25S371.5,222.815,371.5,222.68Z" transform="translate(-229.462 110.617)" fill="#fff"/>
  <path id="Path_3855" data-name="Path 3855" d="M368.55,222.68c0-.135.636-.25,1.406-.25s1.426.116,1.426.25-.636.25-1.426.25S368.55,222.815,368.55,222.68Z" transform="translate(-232.195 110.617)" fill="#fff"/>
  <path id="Path_3856" data-name="Path 3856" d="M365.6,222.68c0-.135.636-.25,1.426-.25s1.406.116,1.406.25-.636.25-1.406.25S365.6,222.815,365.6,222.68Z" transform="translate(-234.928 110.617)" fill="#fff"/>
  <path id="Path_3857" data-name="Path 3857" d="M362.65,222.68c0-.135.636-.25,1.426-.25s1.406.116,1.406.25-.636.25-1.406.25S362.65,222.815,362.65,222.68Z" transform="translate(-237.661 110.617)" fill="#fff"/>
  <path id="Path_3858" data-name="Path 3858" d="M359.7,222.68c0-.135.636-.25,1.426-.25s1.406.116,1.406.25-.636.25-1.406.25S359.7,222.815,359.7,222.68Z" transform="translate(-240.394 110.617)" fill="#fff"/>
  <path id="Path_3859" data-name="Path 3859" d="M356.75,222.68c0-.135.636-.25,1.426-.25s1.425.116,1.425.25-.636.25-1.425.25S356.75,222.815,356.75,222.68Z" transform="translate(-243.127 110.617)" fill="#fff"/>
  <path id="Path_3860" data-name="Path 3860" d="M353.8,222.68c0-.135.636-.25,1.426-.25s1.426.116,1.426.25-.636.25-1.426.25S353.8,222.815,353.8,222.68Z" transform="translate(-245.86 110.617)" fill="#fff"/>
  <path id="Path_3861" data-name="Path 3861" d="M350.85,222.68c0-.135.636-.25,1.426-.25s1.426.116,1.426.25-.636.25-1.426.25S350.85,222.815,350.85,222.68Z" transform="translate(-248.593 110.617)" fill="#fff"/>
  <path id="Path_3862" data-name="Path 3862" d="M347.9,222.68c0-.135.636-.25,1.426-.25s1.426.116,1.426.25-.636.25-1.426.25S347.9,222.815,347.9,222.68Z" transform="translate(-251.326 110.617)" fill="#fff"/>
  <path id="Path_3863" data-name="Path 3863" d="M346.12,222.681a.27.27,0,0,1,.289-.25.25.25,0,0,1,0,.5.27.27,0,0,1-.289-.25Z" transform="translate(-252.975 110.617)" fill="#fff"/>
  <path id="Path_3864" data-name="Path 3864" d="M376.895,220.454a4.566,4.566,0,0,0,1.31,0,4.007,4.007,0,0,0,2.678-2.023,5.432,5.432,0,0,0-.135-4.951,1.522,1.522,0,0,0-1.021-.809,1.772,1.772,0,0,0-1.329.347,6.338,6.338,0,0,0-1.638,2.755,12.983,12.983,0,0,0-.751,3.525h-.462V207.142a3.617,3.617,0,0,1,0-.983,5.776,5.776,0,0,1,.1.983,25.052,25.052,0,0,0,.116,2.755c.1,2.35.173,5.625.25,9.382h-.462a12.525,12.525,0,0,1,.751-3.66A10.075,10.075,0,0,1,377.01,214a4.161,4.161,0,0,1,1.1-1.368,2.273,2.273,0,0,1,1.715-.424,1.926,1.926,0,0,1,1.31,1.06,5.78,5.78,0,0,1,0,5.336,4.161,4.161,0,0,1-2.967,2.042,3.139,3.139,0,0,1-.982,0Q376.895,220.493,376.895,220.454Z" transform="translate(-225.744 95.544)" fill="#fff"/>
  <path id="Path_3865" data-name="Path 3865" d="M368.14,196.534l-.135.193a1.443,1.443,0,0,1-.5.366,2.041,2.041,0,0,1-2.273-.308,3.854,3.854,0,0,1-.848-1.464,16.657,16.657,0,0,1-.6-1.811,20.244,20.244,0,0,1-.732-4.469h.462a16.794,16.794,0,0,1-.173,5.934,5.336,5.336,0,0,1-1.83,3.005,2.235,2.235,0,0,1-1.734.385,2.062,2.062,0,0,1-1.349-1.021,5.779,5.779,0,0,1,.1-5.413,5.952,5.952,0,0,1,2.7-2.5,4.413,4.413,0,0,1,.963-.308h.347a7.724,7.724,0,0,0-1.214.52,5.664,5.664,0,0,0-3.082,4.835,4.681,4.681,0,0,0,.578,2.659,1.637,1.637,0,0,0,1.06.809,1.926,1.926,0,0,0,1.368-.308,5.067,5.067,0,0,0,1.638-2.755,17.143,17.143,0,0,0,.173-5.779h.462a21.3,21.3,0,0,0,.636,4.392c.173.636.347,1.252.539,1.792a3.563,3.563,0,0,0,.751,1.368,1.927,1.927,0,0,0,1.926.385,3.5,3.5,0,0,0,.771-.5Z" transform="translate(-242.15 79.683)" fill="#fff"/>
  <path id="Path_3866" data-name="Path 3866" d="M489.317,207.59c0,.27-18.282,3.564-40.957,7.34s-41.072,6.589-41.111,6.319,18.282-3.564,40.957-7.34S489.26,207.3,489.317,207.59Z" transform="translate(-196.341 96.85)" fill="#fff"/>
  <path id="Path_3867" data-name="Path 3867" d="M491.467,212.63c0,.27-18.282,3.564-40.937,7.321s-41.072,6.608-41.13,6.338,18.282-3.564,40.957-7.34S491.467,212.341,491.467,212.63Z" transform="translate(-194.349 101.519)" fill="#fff"/>
  <path id="Path_3868" data-name="Path 3868" d="M493.548,217.659c0,.289-18.282,3.564-40.937,7.34s-41.072,6.608-41.111,6.338,18.282-3.564,40.937-7.34S493.51,217.389,493.548,217.659Z" transform="translate(-192.403 106.18)" fill="#fff"/>
  <path id="Path_3869" data-name="Path 3869" d="M390.487,161.844a16.158,16.158,0,0,1-2.466-1.926c-1.56-1.271-3.757-3.14-6.434-5.51-5.375-4.72-12.657-11.385-20.44-19.053S346.6,120.5,341.882,115.185c-2.408-2.659-4.315-4.816-5.606-6.357a18.325,18.325,0,0,1-1.926-2.427,16.142,16.142,0,0,1,2.215,2.177l5.779,6.126c4.912,5.182,11.771,12.291,19.534,19.939s14.949,14.391,20.189,19.265l6.223,5.779a20.862,20.862,0,0,1,2.2,2.158Z" transform="translate(-263.88 3.12)" fill="#fff"/>
  <path id="Path_3870" data-name="Path 3870" d="M383.18,120.64a13.482,13.482,0,0,1-.27,2.466c-.231,1.58-.52,3.853-.694,6.723a74.746,74.746,0,0,0,1.926,22.386l.173.751-.751-.135-2.716-.5c-9.44-1.715-17.974-3.333-24.139-4.566l-7.3-1.483a13.484,13.484,0,0,1-2.639-.694,17.079,17.079,0,0,1,2.716.308l7.359,1.175c6.184,1.04,14.737,2.543,24.177,4.277l2.716.5-.559.617a69.066,69.066,0,0,1-1.657-22.694,56.1,56.1,0,0,1,1-6.723,10.754,10.754,0,0,1,.655-2.408Z" transform="translate(-252.373 16.312)" fill="#fff"/>
  <rect id="Rectangle_700" data-name="Rectangle 700" width="118.728" height="123.756" transform="translate(523.112 86.286)" fill="#e0e0e0"/>
  <rect id="Rectangle_701" data-name="Rectangle 701" width="118.728" height="123.756" transform="translate(515.079 86.286)" fill="#fafafa"/>
  <path id="Path_3871" data-name="Path 3871" d="M683.906,218.153H565.12V94.32H683.906Zm-118.709,0H683.848V94.4H565.2Z" transform="translate(-50.08 -8.072)" fill="#e0e0e0"/>
  <rect id="Rectangle_702" data-name="Rectangle 702" width="86.807" height="90.486" transform="translate(531.03 102.912)" fill="#fff"/>
  <path id="Path_3872" data-name="Path 3872" d="M581.082,150.25a12.817,12.817,0,0,1-2.138,2.5c-1.387,1.464-3.333,3.429-5.51,5.587s-4.2,4.065-5.779,5.433a14.158,14.158,0,0,1-2.5,2.081,13.856,13.856,0,0,1,2.138-2.485c1.387-1.445,3.333-3.429,5.529-5.587s4.2-4.084,5.779-5.452a14.551,14.551,0,0,1,2.485-2.081Z" transform="translate(-50.052 43.745)" fill="#e0e0e0"/>
  <path id="Path_3873" data-name="Path 3873" d="M618.48,150.14a13.851,13.851,0,0,1,2.485,2.138c1.464,1.387,3.448,3.333,5.606,5.51s4.065,4.2,5.433,5.683a14.164,14.164,0,0,1,2.081,2.5,13.849,13.849,0,0,1-2.485-2.138c-1.464-1.387-3.448-3.333-5.606-5.529s-4.065-4.2-5.433-5.683a13.493,13.493,0,0,1-2.081-2.485Z" transform="translate(-0.643 43.643)" fill="#e0e0e0"/>
  <path id="Path_3874" data-name="Path 3874" d="M618.36,110.6a13.473,13.473,0,0,1,2.139-2.5c1.387-1.445,3.333-3.429,5.51-5.587s4.2-4.065,5.683-5.433A14.169,14.169,0,0,1,634.2,95a13.851,13.851,0,0,1-2.138,2.485c-1.387,1.464-3.333,3.448-5.529,5.606s-4.2,4.065-5.78,5.433a14.542,14.542,0,0,1-2.389,2.081Z" transform="translate(-0.755 -7.442)" fill="#e0e0e0"/>
  <path id="Path_3875" data-name="Path 3875" d="M580.8,110.816a13.855,13.855,0,0,1-2.5-2.138c-1.464-1.387-3.448-3.333-5.606-5.51s-4.065-4.2-5.413-5.683A13.838,13.838,0,0,1,565.2,95a13.859,13.859,0,0,1,2.485,2.138c1.464,1.387,3.448,3.333,5.606,5.529s4.065,4.2,5.433,5.779a13.486,13.486,0,0,1,2.081,2.37Z" transform="translate(-50.006 -7.442)" fill="#e0e0e0"/>
  <path id="Path_3876" data-name="Path 3876" d="M660.106,193.79a1.58,1.58,0,0,1,0-.443V187.2c0-4.277,0-10.518-.1-18.436,0-15.855,0-38.433-.173-65.5l.347.347H573.627l.385-.385V193.77l-.328-.327,62.687.173h17.685l-17.531.1-62.9.154H573.3V102.61h87.288v.751c0,27.125-.135,49.78-.174,65.673v24.408A.373.373,0,0,1,660.106,193.79Z" transform="translate(-42.501 -0.392)" fill="#e0e0e0"/>
  <rect id="Rectangle_703" data-name="Rectangle 703" width="28.974" height="28.974" transform="translate(559.946 133.677)" fill="#ebebeb"/>
  <rect id="Rectangle_704" data-name="Rectangle 704" width="666.268" height="34.137" transform="translate(0.385 0.501)" fill="#ebebeb"/>
  <path id="Path_3877" data-name="Path 3877" d="M315.222,61.366a5.606,5.606,0,1,1-5.606-5.606A5.606,5.606,0,0,1,315.222,61.366Z" transform="translate(-291.989 -43.797)" fill="#fff"/>
  <path id="Path_3878" data-name="Path 3878" d="M324.292,61.366a5.587,5.587,0,1,1-1.63-3.963,5.606,5.606,0,0,1,1.63,3.963Z" transform="translate(-283.586 -43.797)" fill="#fff"/>
  <path id="Path_3879" data-name="Path 3879" d="M333.392,61.366a5.606,5.606,0,1,1-5.606-5.606A5.606,5.606,0,0,1,333.392,61.366Z" transform="translate(-275.155 -43.797)" fill="#fff"/>
  <path id="Path_3880" data-name="Path 3880" d="M507.363,96.241c0,.289-13.177.5-29.436.5s-29.436-.212-29.436-.5,13.177-.5,29.436-.5S507.363,95.875,507.363,96.241Z" transform="translate(-158.133 -6.757)" fill="#fff"/>
  <path id="Path_3881" data-name="Path 3881" d="M518.556,100.241c0,.27-16.375.5-36.6.5s-36.6-.231-36.6-.5,16.375-.5,36.6-.5S518.556,99.99,518.556,100.241Z" transform="translate(-161.042 -3.051)" fill="#fff"/>
  <path id="Path_3882" data-name="Path 3882" d="M483.89,119.249a8.034,8.034,0,0,1-1.618,1.214l-4.585,2.986-3.2,1.926-1.792,1.117a2.986,2.986,0,0,1-2.446.674,1.791,1.791,0,0,1-1.117-1.021,3.468,3.468,0,0,1-.231-1.368,10.66,10.66,0,0,1,.482-2.524c.443-1.618.867-3.275,1.329-4.97.79-3.371,2.215-6.685,1.7-9.5a3.583,3.583,0,0,0-2.466-2.755,5.586,5.586,0,0,0-3.468,0,11.559,11.559,0,0,0-4.238,3.14c-.867.944-1.349,1.483-1.406,1.426a7.819,7.819,0,0,1,1.117-1.676,10.577,10.577,0,0,1,4.3-3.564,6.319,6.319,0,0,1,3.949-.212,4.431,4.431,0,0,1,3.121,3.352,11.058,11.058,0,0,1-.308,4.951c-.424,1.618-.867,3.294-1.329,5.009s-.905,3.371-1.349,4.99a9.407,9.407,0,0,0-.462,2.254c0,.713.193,1.368.655,1.483a2.647,2.647,0,0,0,1.714-.539l1.811-1.079,3.256-1.926c1.926-1.175,3.641-2.1,4.778-2.716a7.471,7.471,0,0,1,1.811-.674Z" transform="translate(-146.701 0.827)" fill="#fff"/>
  <path id="Path_3883" data-name="Path 3883" d="M475.089,117.668a21.72,21.72,0,0,1-.944-6.415,20.236,20.236,0,0,1,0-6.473,22.081,22.081,0,0,1,.963,6.415A20.559,20.559,0,0,1,475.089,117.668Z" transform="translate(-134.606 1.619)" fill="#fff"/>
  <path id="Path_3884" data-name="Path 3884" d="M482.012,108.249a12.041,12.041,0,0,1-4.8.751,11.732,11.732,0,0,1-4.855-.27,12.483,12.483,0,0,1,4.816-.732,11.771,11.771,0,0,1,4.835.25Z" transform="translate(-136.018 4.469)" fill="#fff"/>
  <path id="Path_3885" data-name="Path 3885" d="M480.685,146.8h-.751a17.329,17.329,0,0,1-2.158-.231,38.684,38.684,0,0,1-7.706-1.926,42.825,42.825,0,0,1-28.57-40.725,38.535,38.535,0,0,1,.809-7.937,17.859,17.859,0,0,1,.52-2.119,2.408,2.408,0,0,1,.25-.713,70.229,70.229,0,0,0-.867,10.769,43.461,43.461,0,0,0,28.069,40.013,68.926,68.926,0,0,0,10.4,2.87Z" transform="translate(-164.61 -9.156)" fill="#fff"/>
  <path id="Path_3886" data-name="Path 3886" d="M476.82,121.69a3.85,3.85,0,0,1-.4,1.348,15.218,15.218,0,0,1-1.926,3.275,18.86,18.86,0,0,1-10.615,6.666,18.189,18.189,0,0,1-5.24.366l-1.214-.116.963-.751a16.915,16.915,0,0,0,5.2-6.916c.809-1.926.982-3.352,1.117-3.333a7.705,7.705,0,0,1-.559,3.545,15.932,15.932,0,0,1-5.163,7.455l-.27-.848a18.322,18.322,0,0,0,4.951-.385,19.5,19.5,0,0,0,10.287-6.126A46.523,46.523,0,0,0,476.82,121.69Z" transform="translate(-149.86 17.285)" fill="#fff"/>
  <path id="Path_3887" data-name="Path 3887" d="M508.573,114.107a11.015,11.015,0,0,1-1.194,1.291,37.742,37.742,0,0,1-3.641,3.082,55.368,55.368,0,0,1-13.774,7.552,56.118,56.118,0,0,1-15.412,3.371,37.793,37.793,0,0,1-4.778,0,5.551,5.551,0,0,1-1.734-.193c0-.173,2.485-.154,6.435-.6a63.922,63.922,0,0,0,15.084-3.6,64.672,64.672,0,0,0,13.716-7.186C506.608,115.629,508.419,113.914,508.573,114.107Z" transform="translate(-140.021 10.246)" fill="#fff"/>
  <path id="Path_3888" data-name="Path 3888" d="M588.782,180.534c0,.212-52.361.4-116.936.4s-116.956-.193-116.956-.4,52.361-.424,116.956-.424S588.782,180.3,588.782,180.534Z" transform="translate(-244.85 71.409)" fill="#fafafa"/>
  <path id="Path_3889" data-name="Path 3889" d="M542.357,221.691a2.31,2.31,0,0,1-.212-.655l-.559-1.926c-.482-1.734-1.214-4.277-2.235-7.513a145.675,145.675,0,0,0-11.4-26.508,104.951,104.951,0,0,0-27.471-32.268,85.994,85.994,0,0,0-21.865-12.272,74.053,74.053,0,0,0-26.393-4.874,82.954,82.954,0,0,0-48.778,15.97,81.644,81.644,0,0,0-16.3,15.8,92.242,92.242,0,0,0-10.48,16.837,95.842,95.842,0,0,0-8.38,27.433c-.482,3.371-.751,6.011-.848,7.706,0,.867-.116,1.541-.154,2.042a3.843,3.843,0,0,1,0,.694v-2.5a75.5,75.5,0,0,1,.674-7.821,94.782,94.782,0,0,1,8.187-27.645A90.947,90.947,0,0,1,386.6,167.191,82.053,82.053,0,0,1,403,151.182,83.32,83.32,0,0,1,452.218,135a74.746,74.746,0,0,1,26.682,4.932,86.266,86.266,0,0,1,22.039,12.406A104.514,104.514,0,0,1,528.564,184.9a140.383,140.383,0,0,1,11.173,26.6c1,3.256,1.676,5.779,2.1,7.571.212.848.366,1.5.482,1.926A1.4,1.4,0,0,1,542.357,221.691Z" transform="translate(-233.371 29.616)" fill="#fafafa"/>
  <path id="Path_3890" data-name="Path 3890" d="M369.69,178.709c.173.154-.212.963-.886,1.811s-1.349,1.445-1.541,1.31.212-.944.886-1.811S369.517,178.575,369.69,178.709Z" transform="translate(-233.432 70.094)" fill="#fafafa"/>
  <path id="Path_3891" data-name="Path 3891" d="M377.154,172.809c.135.173-1.04,1.522-2.659,3.005s-3.044,2.581-3.217,2.427,1.04-1.522,2.659-3.025S377,172.635,377.154,172.809Z" transform="translate(-229.683 64.628)" fill="#fafafa"/>
  <path id="Path_3892" data-name="Path 3892" d="M384.415,168.11c.116.193-1.368,1.194-3.236,2.35a11.558,11.558,0,0,1-3.564,1.83c-.135-.193,1.233-1.368,3.14-2.543a8.766,8.766,0,0,1,3.66-1.637Z" transform="translate(-223.805 60.292)" fill="#fafafa"/>
  <path id="Path_3893" data-name="Path 3893" d="M392.472,165.1a10.151,10.151,0,0,1-3.68,1.56,11.269,11.269,0,0,1-3.853.886,9.247,9.247,0,0,1,3.66-1.676,9.516,9.516,0,0,1,3.872-.771Z" transform="translate(-217.01 57.503)" fill="#fafafa"/>
  <path id="Path_3894" data-name="Path 3894" d="M400.672,163.18a19.418,19.418,0,0,1-7.8,1.657,19.419,19.419,0,0,1,7.8-1.657Z" transform="translate(-209.663 55.724)" fill="#fafafa"/>
  <path id="Path_3895" data-name="Path 3895" d="M408.92,162.182a9.961,9.961,0,0,1-3.853.828,9.805,9.805,0,0,1-4.007,0,9.844,9.844,0,0,1,3.853-.828A10.615,10.615,0,0,1,408.92,162.182Z" transform="translate(-202.075 54.623)" fill="#fafafa"/>
  <path id="Path_3896" data-name="Path 3896" d="M417.285,162.288a10.055,10.055,0,0,1-4.007.308,10.673,10.673,0,0,1-3.988-.5,9.632,9.632,0,0,1,4.007-.327,10.364,10.364,0,0,1,3.988.52Z" transform="translate(-194.451 54.343)" fill="#fafafa"/>
  <path id="Path_3897" data-name="Path 3897" d="M425.536,163.168a20.285,20.285,0,0,1-7.956-.79,9.96,9.96,0,0,1,4.007,0,9.788,9.788,0,0,1,3.949.79Z" transform="translate(-186.77 54.793)" fill="#fafafa"/>
  <path id="Path_3898" data-name="Path 3898" d="M433.66,164.848a10.365,10.365,0,0,1-4.007-.366,9.883,9.883,0,0,1-3.853-1.175,10.269,10.269,0,0,1,3.988.366,9.9,9.9,0,0,1,3.872,1.175Z" transform="translate(-179.155 55.79)" fill="#fafafa"/>
  <path id="Path_3899" data-name="Path 3899" d="M441.558,167.373a9.631,9.631,0,0,1-3.949-.79,11.174,11.174,0,0,1-3.7-1.522,9.171,9.171,0,0,1,3.853.732,10.365,10.365,0,0,1,3.8,1.58Z" transform="translate(-171.641 57.464)" fill="#fafafa"/>
  <path id="Path_3900" data-name="Path 3900" d="M448.982,171.238a9.633,9.633,0,0,1-3.853-1.368,9.9,9.9,0,0,1-3.429-2.1,9.941,9.941,0,0,1,3.853,1.368A10.326,10.326,0,0,1,448.982,171.238Z" transform="translate(-164.424 59.977)" fill="#fafafa"/>
  <path id="Path_3901" data-name="Path 3901" d="M455.584,176.256a9.942,9.942,0,0,1-3.506-1.926c-1.792-1.252-3.14-2.447-3.025-2.639a9.941,9.941,0,0,1,3.506,1.926C454.37,174.907,455.719,176.14,455.584,176.256Z" transform="translate(-157.618 63.609)" fill="#fafafa"/>
  <path id="Path_3902" data-name="Path 3902" d="M458.456,179.521c-.173.173-.925-.327-1.715-1.079s-1.272-1.5-1.117-1.676.905.327,1.7,1.079S458.61,179.367,458.456,179.521Z" transform="translate(-151.551 68.28)" fill="#fafafa"/>
  <path id="Path_3903" data-name="Path 3903" d="M372.077,186.643c-.154.154-1.541-1-2.87-2.755a7.571,7.571,0,0,1-1.927-3.545c.193-.116,1.194,1.329,2.524,3.044S372.25,186.469,372.077,186.643Z" transform="translate(-233.371 71.619)" fill="#fafafa"/>
  <path id="Path_3904" data-name="Path 3904" d="M379.221,190.966a9.633,9.633,0,0,1-3.448-1.926c-1.792-1.291-3.121-2.466-2.967-2.639a10,10,0,0,1,3.448,1.926C378.007,189.6,379.337,190.773,379.221,190.966Z" transform="translate(-228.263 77.237)" fill="#fafafa"/>
  <path id="Path_3905" data-name="Path 3905" d="M386.8,194.231a19.435,19.435,0,0,1-7.128-3.391,9.981,9.981,0,0,1,3.737,1.329,9.633,9.633,0,0,1,3.391,2.061Z" transform="translate(-221.892 81.35)" fill="#fafafa"/>
  <path id="Path_3906" data-name="Path 3906" d="M394.85,195.927a9.362,9.362,0,0,1-3.853-.52A8.958,8.958,0,0,1,387.26,194a11.559,11.559,0,0,1,3.853.617,9.863,9.863,0,0,1,3.737,1.31Z" transform="translate(-214.861 84.278)" fill="#fafafa"/>
  <path id="Path_3907" data-name="Path 3907" d="M403.021,197.2a9.631,9.631,0,0,1-3.968-.251,9.324,9.324,0,0,1-3.853-1.079,10.191,10.191,0,0,1,3.853.27A9.8,9.8,0,0,1,403.021,197.2Z" transform="translate(-207.504 85.947)" fill="#fafafa"/>
  <path id="Path_3908" data-name="Path 3908" d="M411.171,197.879a9.749,9.749,0,0,1-3.969,0,9.633,9.633,0,0,1-3.853-.751,20.526,20.526,0,0,1,7.822.751Z" transform="translate(-199.954 86.987)" fill="#fafafa"/>
  <path id="Path_3909" data-name="Path 3909" d="M419.408,197.807a19.475,19.475,0,0,1-7.9,0,9.634,9.634,0,0,1,3.949-.424,10.056,10.056,0,0,1,3.949.424Z" transform="translate(-192.394 87.367)" fill="#fafafa"/>
  <path id="Path_3910" data-name="Path 3910" d="M427.541,197a9.323,9.323,0,0,1-3.853.848,9.765,9.765,0,0,1-3.968,0,9.941,9.941,0,0,1,3.853-.848,10.269,10.269,0,0,1,3.968,0Z" transform="translate(-184.788 86.881)" fill="#fafafa"/>
  <path id="Path_3911" data-name="Path 3911" d="M435.526,195.324a19.458,19.458,0,0,1-7.706,1.792,9.634,9.634,0,0,1,3.737-1.31,10.191,10.191,0,0,1,3.968-.482Z" transform="translate(-177.283 85.477)" fill="#fafafa"/>
  <path id="Path_3912" data-name="Path 3912" d="M443.138,192.68a9.88,9.88,0,0,1-3.545,1.772,9.632,9.632,0,0,1-3.853,1.021,19.782,19.782,0,0,1,7.4-2.793Z" transform="translate(-169.946 83.055)" fill="#fafafa"/>
  <path id="Path_3913" data-name="Path 3913" d="M450.218,189c.116.193-1.349,1.194-3.256,2.254a10.231,10.231,0,0,1-3.66,1.56c-.1-.212,1.368-1.214,3.256-2.273a10.113,10.113,0,0,1,3.66-1.541Z" transform="translate(-162.944 79.646)" fill="#fafafa"/>
  <path id="Path_3914" data-name="Path 3914" d="M456.6,184.25c.135.173-1.156,1.406-2.89,2.736s-3.256,2.254-3.391,2.061,1.156-1.406,2.89-2.716a9.633,9.633,0,0,1,3.391-2.081Z" transform="translate(-156.442 75.245)" fill="#fafafa"/>
  <path id="Path_3915" data-name="Path 3915" d="M459.581,180.008c.154.173-.366.944-1.175,1.753s-1.6,1.31-1.753,1.156.366-.944,1.175-1.753S459.408,179.893,459.581,180.008Z" transform="translate(-150.595 71.299)" fill="#fafafa"/>
  <path id="Path_3916" data-name="Path 3916" d="M410.585,283.851c-.212,0-.4-36.776-.4-82.106s.193-82.125.4-82.125.424,36.757.424,82.125S410.816,283.851,410.585,283.851Z" transform="translate(-193.626 15.367)" fill="#fafafa"/>
  <path id="Path_3917" data-name="Path 3917" d="M484.493,139c.173.173-16.279,17.627-36.738,38.992s-37.161,38.529-37.335,38.529,16.3-17.608,36.757-38.992S484.339,138.885,484.493,139Z" transform="translate(-193.404 33.322)" fill="#fafafa"/>
  <path id="Path_3918" data-name="Path 3918" d="M447.031,140.965a18.072,18.072,0,0,1,3.333-1.368c2.119-.771,5.124-1.926,8.631-3.005l.616-.212-.1.636c-.289,1.772-.6,3.68-.925,5.664s-.559,3.371-.828,4.932v.424l-.424-.1a21.828,21.828,0,0,1-8.688-4.354,18.838,18.838,0,0,1-2.042-1.926,3.468,3.468,0,0,1-.6-.828,36.72,36.72,0,0,0,2.947,2.408,23.271,23.271,0,0,0,8.592,3.969l-.482.308c.25-1.541.52-3.217.79-4.932s.655-3.853.963-5.664l.5.443c-3.525,1.137-6.569,2.1-8.727,2.736a19.262,19.262,0,0,1-3.564.867Z" transform="translate(-160.431 30.895)" fill="#fafafa"/>
  <path id="Path_3919" data-name="Path 3919" d="M458.65,156.693a87.912,87.912,0,0,1,5.779-10.519,87.124,87.124,0,0,1,6.454-10.095A87.9,87.9,0,0,1,465.1,146.6a87.112,87.112,0,0,1-6.454,10.095Z" transform="translate(-148.72 30.617)" fill="#fafafa"/>
  <path id="Path_3920" data-name="Path 3920" d="M472.159,160.215a100.2,100.2,0,0,1-7.166-10.73,101.221,101.221,0,0,1-6.473-11.154,102.094,102.094,0,0,1,7.166,10.711,100.349,100.349,0,0,1,6.473,11.173Z" transform="translate(-148.841 32.702)" fill="#fafafa"/>
  <path id="Path_3921" data-name="Path 3921" d="M474.753,152.124a30.324,30.324,0,0,0-5.683-8.881l.655-.116a15.74,15.74,0,0,0-.6,10.441l-.732.135c-.135-2.466-.231-4.527-.27-5.991a8.019,8.019,0,0,1,0-2.293,8.554,8.554,0,0,1,.366,2.273c.173,1.445.366,3.506.578,5.953l.289,3.256-1-3.121a15.412,15.412,0,0,1-.578-6.762,15.638,15.638,0,0,1,1.156-4.2l.25-.539.4.424a21.634,21.634,0,0,1,4.258,6.492,8.421,8.421,0,0,1,.906,2.928Z" transform="translate(-140.396 36.361)" fill="#fafafa"/>
  <path id="Path_3922" data-name="Path 3922" d="M427.145,186.1a8.712,8.712,0,0,0,1.117-.539,5.779,5.779,0,0,0,2.235-2.35,7.707,7.707,0,0,0,.886-4.7,17.609,17.609,0,0,0-1.926-5.779l-.655-1.387.713-.4a4.489,4.489,0,0,1-1.175,5.625,3.853,3.853,0,0,1-2.524.809,4.238,4.238,0,0,1-2.119-.79,4.181,4.181,0,0,1-1.753-2.62,1.811,1.811,0,0,1,0-1.137,3.7,3.7,0,0,0,.231,1.079,4.258,4.258,0,0,0,1.772,2.215,3.852,3.852,0,0,0,1.926.6,3.082,3.082,0,0,0,1.926-.732,3.853,3.853,0,0,0,.944-4.624l.713-.385.674,1.387a18.417,18.417,0,0,1,1.927,6.049,8.111,8.111,0,0,1-1.156,5.067,5.779,5.779,0,0,1-2.6,2.331A2.273,2.273,0,0,1,427.145,186.1Z" transform="translate(-182.812 62.914)" fill="#fafafa"/>
  <path id="Path_3923" data-name="Path 3923" d="M471.041,147.6a13.675,13.675,0,0,1-2.428.328c-1.56.154-3.853.347-6.608.539-5.587.366-13.312.713-21.865.732s-16.279-.27-21.885-.617c-2.793-.173-5.047-.347-6.608-.5a12.445,12.445,0,0,1-2.408-.308,13.083,13.083,0,0,1,2.427,0l6.627.231c5.587.193,13.312.385,21.846.366s16.24-.27,21.846-.482l6.608-.289A13.487,13.487,0,0,1,471.041,147.6Z" transform="translate(-194.497 41.235)" fill="#fafafa"/>
  <path id="Path_3924" data-name="Path 3924" d="M422.7,139.916a7.379,7.379,0,0,1-4.142.828,7.533,7.533,0,0,1-4.161-.828,23.113,23.113,0,0,1,4.161,0,22.7,22.7,0,0,1,4.142,0Z" transform="translate(-189.716 34.083)" fill="#fafafa"/>
  <path id="Path_3925" data-name="Path 3925" d="M414.415,148.011s.308.25.809.751a8.668,8.668,0,0,0,2.292,1.753,4.045,4.045,0,0,0,3.949,0,3.641,3.641,0,0,0,1.927-4.142,3.487,3.487,0,0,0-3.179-2.736,3.68,3.68,0,0,0-3.256,1.657l-.231.4-.27-.347a3.159,3.159,0,0,1-.231-3.564c.482-.751.983-.925,1-.886a7.092,7.092,0,0,0-.693,1.04,2.851,2.851,0,0,0,.385,3.005h-.5a4.258,4.258,0,0,1,3.853-2.138,4.411,4.411,0,0,1,3.641,6.338,4.739,4.739,0,0,1-1.926,1.926,4.528,4.528,0,0,1-2.5.52,5.009,5.009,0,0,1-2.081-.674,7.878,7.878,0,0,1-2.273-2.061C414.55,148.4,414.357,148.03,414.415,148.011Z" transform="translate(-189.712 35.08)" fill="#fafafa"/>
  <path id="Path_3926" data-name="Path 3926" d="M421.6,150.178a18.953,18.953,0,0,1,2.408-4.951,18.417,18.417,0,0,1,3.121-4.527,18.956,18.956,0,0,1-2.408,4.951A18.413,18.413,0,0,1,421.6,150.178Z" transform="translate(-183.046 34.897)" fill="#fafafa"/>
  <path id="Path_3927" data-name="Path 3927" d="M429.254,151.4a20.922,20.922,0,0,1-8.284-9.478c.212-.116,1.753,2.235,4.026,4.835S429.408,151.208,429.254,151.4Z" transform="translate(-183.629 36.026)" fill="#fafafa"/>
  <path id="Path_3928" data-name="Path 3928" d="M388.283,143.091a4.969,4.969,0,0,0,1.83,1.329,5.24,5.24,0,0,0,5.548-1.406,14.121,14.121,0,0,0,2.967-8.515,50.528,50.528,0,0,0-.559-11.385c-.193-1.194-.366-2.35-.52-3.448h.809a20.511,20.511,0,0,1,0,5.433,7.089,7.089,0,0,1-2.447,4.469,4.6,4.6,0,0,1-4.469.944,5.972,5.972,0,0,1-3.044-2.562,10.382,10.382,0,0,1-1.233-5.433,9.294,9.294,0,0,1,.116-2.023,11.3,11.3,0,0,1,.173,1.926,10.809,10.809,0,0,0,1.406,5.163,5.491,5.491,0,0,0,2.774,2.235,3.853,3.853,0,0,0,3.853-.886,6.453,6.453,0,0,0,2.138-4.046,20.671,20.671,0,0,0,0-5.221l.809-.116c.154,1.117.347,2.273.52,3.468a47.5,47.5,0,0,1,.5,11.559,14.467,14.467,0,0,1-3.294,8.862,5.78,5.78,0,0,1-3.333,1.657,5.183,5.183,0,0,1-2.774-.366,3.448,3.448,0,0,1-1.387-1.079C388.341,143.3,388.264,143.111,388.283,143.091Z" transform="translate(-214.959 15.303)" fill="#fafafa"/>
  <path id="Path_3929" data-name="Path 3929" d="M406.494,136.107a1.648,1.648,0,0,1-1.368.52,3.448,3.448,0,0,1-3.024-2.5,7.246,7.246,0,0,1-.27-2.774c0-1,.27-2.023.212-3.025a2.775,2.775,0,0,0-.4-1.387,1.927,1.927,0,0,0-1.137-.809c-.925-.173-1.618.944-1.927,2.081a24.447,24.447,0,0,0-.559,8.38h-.732c-.231-2.87-.4-5.259-.5-6.935a12.255,12.255,0,0,1,0-2.659,11.307,11.307,0,0,1,.462,2.62c.231,1.657.5,4.046.809,6.9h-.732a23.772,23.772,0,0,1,.5-8.669,4.605,4.605,0,0,1,.828-1.926,2.08,2.08,0,0,1,1.926-.828,2.948,2.948,0,0,1,2.177,2.928,23.444,23.444,0,0,1-.308,3.121,7.322,7.322,0,0,0,.154,2.562,3.082,3.082,0,0,0,2.485,2.35A3.217,3.217,0,0,0,406.494,136.107Z" transform="translate(-206.103 20.419)" fill="#fafafa"/>
  <path id="Path_3930" data-name="Path 3930" d="M463.45,264.244s-6.2-7.706-14.468-9.44-18.3,2.948-22.135,0-16.24-4.662-17.7-.4.6,9.266,8.842,9.844a96.888,96.888,0,0,1,15.951,2.659s-43.981,27.163-46.351,30.111-4.72,5.895-2.639,8.265,10.037-3.545,10.037-3.545l20.054-2.37a69.974,69.974,0,0,0,19.265,1.483c8.862-.886,18.3-7.378,18.3-7.378l20.652-3.256S477.609,269.272,463.45,264.244Z" transform="translate(-217.748 137.868)" fill="#bf6e65"/>
  <path id="Path_3931" data-name="Path 3931" d="M390.485,282.7c.1,0,0-.482,0-1.271a5.434,5.434,0,0,1,1.329-3.005,18.148,18.148,0,0,1,10.114-4.72,47.911,47.911,0,0,1,11.559-.327,22.16,22.16,0,0,0,4.874.135,16.493,16.493,0,0,0-4.778-1.021,37.817,37.817,0,0,0-11.867,0,17.338,17.338,0,0,0-10.576,5.394,5.432,5.432,0,0,0-1.117,3.564C390.119,282.31,390.408,282.734,390.485,282.7Z" transform="translate(-212.306 156.558)" fill="#8b4a41"/>
  <path id="Path_3932" data-name="Path 3932" d="M397.4,275.449c.154.289,3.41-1.214,7.243-3.371s6.8-4.161,6.627-4.45-3.41,1.194-7.244,3.352S397.23,275.14,397.4,275.449Z" transform="translate(-205.47 152.458)" fill="#8b4a41"/>
  <path id="Path_3933" data-name="Path 3933" d="M410.5,263.58c-.173-.27-3.063,2.2-3.988,6.589s.636,7.821.905,7.706-.578-3.41.308-7.378S410.786,263.83,410.5,263.58Z" transform="translate(-197.295 148.722)" fill="#8b4a41"/>
  <path id="Path_3934" data-name="Path 3934" d="M695.715,200.333,632.161,185.4,626.17,175.27l-63.747,1.021-14.815,15.855L505.13,212.99,540.789,362.7l119.653,6.145Z" transform="translate(-105.658 66.925)" fill="#263238"/>
  <path id="Path_3935" data-name="Path 3935" d="M436.629,305.156l48.162,4.585a35.1,35.1,0,0,1,18.86,0c9.247,3.005,24.1-7.841,24.1-7.841l20.96-31.286s9.247-64.248,20.093-71.086,11.79-7.128,11.79-7.128l19.072,118.323L574.41,352.142s-22.482,20.883-31.71,20.093S422.47,356.3,422.47,356.3Z" transform="translate(-182.24 82.796)" fill="#ff725e"/>
  <path id="Path_3936" data-name="Path 3936" d="M601.868,189.007,580.677,174.25l5.471,22.963L553.61,318.754s3.14,91.006,1.927,131.423H665.171l-29.128-49.7,15.816-200.6Z" transform="translate(-60.743 65.98)" fill="#ff725e"/>
  <path id="Path_3937" data-name="Path 3937" d="M606,449.585l-4.874-135.334s-29.976-35.37-34.946-70.971-6.627-54.692-6.627-54.692l4.45-13.7-16.606,16.722s-9.844,3.41-11.944,4.2a342.786,342.786,0,0,0-32.018,14.063L527.472,396.3s-14.218,29.725-24.043,53.382Z" transform="translate(-107.233 66.573)" fill="#ff725e"/>
  <path id="Path_3938" data-name="Path 3938" d="M524.252,334.723c1.117,5.972,2.042,10.788,2.735,14.121l.809,3.853a6.984,6.984,0,0,0,.347,1.329,5.558,5.558,0,0,0-.135-1.368c-.154-1-.347-2.273-.6-3.853-.578-3.487-1.387-8.3-2.369-14.179-2.023-12.1-4.8-28.57-7.841-46.755s-5.953-34.773-8.188-46.717c-1.1-5.953-2.042-10.788-2.716-14.1-.328-1.58-.6-2.832-.809-3.853a7.707,7.707,0,0,0-.347-1.31,5.918,5.918,0,0,0,.115,1.349c.174,1,.366,2.292.616,3.853.578,3.487,1.387,8.284,2.37,14.159,2.023,12.1,4.778,28.569,7.841,46.755" transform="translate(-105.65 110.117)" fill="#263238"/>
  <path id="Path_3939" data-name="Path 3939" d="M554.93,335.865a8.527,8.527,0,0,0,1.117-1.079l3.024-3.275,11.1-12.31,37.585-42.382.231-.27-.1-.328L601.917,254.7q-1.368-4.816-2.659-9.517l-.6.828,24.929-.963h.848l-.289-.79-16.722-44.867c-2.061-5.413-3.7-9.767-4.893-12.888l-1.349-3.41a6.514,6.514,0,0,0-.54-1.156,5.012,5.012,0,0,0,.347,1.233l1.156,3.468c1.117,3.159,2.658,7.552,4.566,13.023l16.279,45.118.539-.828-24.928.886h-.828l.231.79q1.31,4.681,2.639,9.517c2.081,7.417,4.084,14.641,6.011,21.519l.135-.6-37.239,42.613-10.827,12.56c-1.175,1.426-2.138,2.543-2.851,3.41A9.1,9.1,0,0,0,554.93,335.865Z" transform="translate(-59.52 73.105)" fill="#263238"/>
  <path id="Path_3940" data-name="Path 3940" d="M558.606,383.547c.347,0-.308-30.823-1.483-68.7s-2.408-68.678-2.774-68.659.289,30.823,1.464,68.7S558.24,383.547,558.606,383.547Z" transform="translate(-60.153 132.63)" fill="#263238"/>
  <path id="Path_3941" data-name="Path 3941" d="M530.833,183.17a6.614,6.614,0,0,0-.27,1.426c-.154,1.06-.366,2.447-.617,4.161-.482,3.853-1.175,9-1.926,15.412-1.657,13.331-3.853,31.806-6.55,52.92v.867l.848-.154,13.813-2.37-.713-.925c-.828,1.926-1.734,3.853-2.62,5.895l-5.182,11.559-.173.385.27.308,38.3,44.405,11.559,13.081,3.14,3.487c.732.79,5.49,4.373,5.51,4.335s-4.662-3.641-5.317-4.489l-2.966-3.641L566.761,316.5c-9.632-11.366-22.944-26.971-37.971-44.694v.674c1.676-3.7,3.41-7.706,5.2-11.559.886-1.926,1.792-4.026,2.62-5.895l.5-1.117-1.194.212-13.813,2.408.732.694c2.427-21.191,4.566-39.627,6.088-52.959.693-6.511,1.252-11.771,1.657-15.547.173-1.715.289-3.1.385-4.161A7.028,7.028,0,0,0,530.833,183.17Z" transform="translate(-90.52 74.244)" fill="#263238"/>
  <g id="Group_4" data-name="Group 4" transform="translate(495.41 317.482)" opacity="0.3">
    <path id="Path_3942" data-name="Path 3942" d="M623.57,214.485c-.424,1.368-9.382,2.736-10.942,6.511s-.79,8.091.308,12.021,2.562,7.918,2.292,12c-.5,7.321-6.28,13.023-11.674,17.993-15.1,13.871-33.521,28.9-48.624,42.825,13.37-17.049,30.823-34.676,45.6-50.57a21,21,0,0,0,5.375-7.86c1.175-3.853,0-7.975-1.117-11.828l-4.547-15.412c-.385-1.31-1.233-3.525-1.445-4.238a33.042,33.042,0,0,1,5.625-.694,142.27,142.27,0,0,1,19.149-.848" transform="translate(-554.93 -214.35)"/>
  </g>
  <path id="Path_3943" data-name="Path 3943" d="M614.7,187.55s20.921,7.359,27.471,29.764,11.559,53.614,18.147,73.206,1.387,21.191,5.086,29.09,18.9,32.018,7.263,49.78-23.233,27.934-45.021,19.265A97.343,97.343,0,0,1,593.7,366.326Z" transform="translate(-23.601 78.302)" fill="#ff725e"/>
  <path id="Path_3944" data-name="Path 3944" d="M624.6,208.84a9.476,9.476,0,0,0-.115,1.676c0,1.214,0,2.813,0,4.816v3.487c0,1.271-.193,2.639-.308,4.123-.251,2.947-.385,6.338-.983,10.037-.25,1.926-.52,3.853-.79,5.779s-.751,4.1-1.137,6.28c-.713,4.335-1.83,8.9-2.909,13.736-2.312,9.632-5.221,20.132-8.342,31.151s-5.914,21.6-8.091,31.286c-.982,4.874-1.926,9.478-2.639,13.851-.327,2.2-.713,4.3-.963,6.319s-.4,3.988-.6,5.876c-.462,3.718-.462,7.128-.578,10.095,0,1.5-.135,2.87-.116,4.161s.116,2.427.154,3.487c.116,1.927.193,3.6.27,4.816a9.627,9.627,0,0,0,.173,1.676,10.384,10.384,0,0,0,0-1.7c0-1.214,0-2.813,0-4.816v-3.468c0-1.252.135-2.659.193-4.142.193-2.947.25-6.338.79-10.037.212-1.926.443-3.853.674-5.779s.674-4.1,1.021-6.28c.655-4.335,1.715-8.92,2.736-13.774,2.235-9.632,5.067-20.17,8.168-31.19s5.991-21.557,8.264-31.228c1.04-4.855,2.119-9.459,2.813-13.832.366-2.177.79-4.258,1.06-6.3s.482-3.969.713-5.779c.539-3.718.616-7.128.809-10.095,0-1.483.192-2.87.212-4.142s0-2.447,0-3.506c0-1.926-.1-3.6-.135-4.816a8.17,8.17,0,0,0-.347-1.772Z" transform="translate(-20.517 98.027)" fill="#263238"/>
  <path id="Path_3945" data-name="Path 3945" d="M601.57,252.091c0,.231,3.1-.578,8.13-1.079a63.573,63.573,0,0,1,37.855,8.091c4.373,2.524,6.819,4.508,6.955,4.315s-.5-.6-1.6-1.522A38.218,38.218,0,0,0,648,258.352a57.794,57.794,0,0,0-38.414-8.226,41.217,41.217,0,0,0-5.934,1.233,7.418,7.418,0,0,0-2.08.732Z" transform="translate(-16.31 135.784)" fill="#263238"/>
  <path id="Path_3946" data-name="Path 3946" d="M475.34,250.757c0,.193,2.158,1.464,5.51,3.853a62.649,62.649,0,0,1,20.016,25.044c1.676,3.853,2.427,6.28,2.62,6.222s0-.655-.289-1.811a38.8,38.8,0,0,0-1.5-4.758,54.481,54.481,0,0,0-20.343-25.41,35.742,35.742,0,0,0-4.315-2.5A5.819,5.819,0,0,0,475.34,250.757Z" transform="translate(-133.258 136.848)" fill="#263238"/>
  <path id="Path_3947" data-name="Path 3947" d="M622.637,118.508c6.55-4.161,8.13-13.813,4.585-20.71s-11.077-11.077-18.745-12.31A35.735,35.735,0,0,0,577.654,95.68c-4.219,4.354-7.706,10.037-13.37,12.021-5.047,1.753-10.615.173-15.913.867-7.089.905-13.158,5.953-16.8,12.117a51.454,51.454,0,0,0-5.972,20.421c-.771,6.531-1.291,13.678-5.78,18.436s-11.385,5.625-16.856,8.92a23.117,23.117,0,0,0-6.858,31.517c2.158,3.159,5.279,6.068,5.529,9.9.231,3.487-2.023,6.608-3.082,9.96-2.736,8.592,4.315,18.822,13.331,19.265,4.546.27,9.42-1.5,13.485.539s5.568,6.9,8.149,10.615a19.515,19.515,0,0,0,23.792,6.126c3.333-1.637,6.492-4.354,10.21-4.1s6.646,3.429,10.287,4.123c4.778.925,9.324-2.6,12.156-6.55s4.836-8.611,8.457-11.828c4.778-4.238,11.559-5.3,17.492-7.359a49.317,49.317,0,0,0,27.838-69.083" transform="translate(-117.267 -16.637)" fill="#263238"/>
  <path id="Path_3948" data-name="Path 3948" d="M611.742,255.591l.944-46.736L621.567,130a10.846,10.846,0,0,0-9.4-11.27l-57.12-16.163c-18.359-2.485-31.267,19.862-32.962,38.317-1.927,20.517-3.352,45.619-1.349,61.011,4.007,30.978,27.529,35.563,27.529,35.563l-.828,19.631L582.98,285.6Z" transform="translate(-92.098 -0.604)" fill="#bf6e65"/>
  <path id="Path_3949" data-name="Path 3949" d="M524.561,135.976a3.969,3.969,0,0,0,3.7,4.1,3.787,3.787,0,1,0-3.7-4.1Z" transform="translate(-87.658 27.311)" fill="#263238"/>
  <path id="Path_3950" data-name="Path 3950" d="M523.638,131.095c.482.52,3.545-1.6,7.706-1.464s7.32,2.331,7.8,1.926-.25-1.175-1.58-2.2a10.961,10.961,0,0,0-6.222-2.119,10.422,10.422,0,0,0-6.2,1.83C523.869,129.939,523.406,130.845,523.638,131.095Z" transform="translate(-88.565 22.425)" fill="#263238"/>
  <path id="Path_3951" data-name="Path 3951" d="M545.363,136.466a3.988,3.988,0,1,0,4.18-3.448,3.852,3.852,0,0,0-4.18,3.448Z" transform="translate(-68.39 27.765)" fill="#263238"/>
  <path id="Path_3952" data-name="Path 3952" d="M545.327,132.135c.482.52,3.545-1.6,7.8-1.483s7.3,2.35,7.706,1.926-.231-1.175-1.58-2.2a10.943,10.943,0,0,0-6.2-2.119,10.442,10.442,0,0,0-6.222,1.811C545.577,130.979,545.1,131.884,545.327,132.135Z" transform="translate(-68.469 23.37)" fill="#263238"/>
  <path id="Path_3953" data-name="Path 3953" d="M542.023,163.422A28.9,28.9,0,0,0,535.146,162c-1.079-.154-2.119-.4-2.273-1.137a5.527,5.527,0,0,1,.809-3.2l3.448-8.187c4.8-11.559,8.3-21.191,7.841-21.422s-4.739,9.093-9.632,20.748c-1.156,2.87-2.273,5.606-3.313,8.226a6.376,6.376,0,0,0-.694,4.257,2.774,2.774,0,0,0,1.753,1.637,7.707,7.707,0,0,0,1.926.308A27.145,27.145,0,0,0,542.023,163.422Z" transform="translate(-81.483 23.176)" fill="#263238"/>
  <path id="Path_3954" data-name="Path 3954" d="M534.56,177.234a78.427,78.427,0,0,0,41.592-9.844s-10.615,20.9-41.38,17.146Z" transform="translate(-78.392 59.625)" fill="#8b4a41"/>
  <path id="Path_3955" data-name="Path 3955" d="M544.6,122.571c.385,1.156,4.643.732,9.632,1.483s8.977,2.215,9.632,1.194c.308-.482-.366-1.6-1.927-2.755a16.9,16.9,0,0,0-14.68-2.042C545.389,121.126,544.426,122.012,544.6,122.571Z" transform="translate(-69.109 15.364)" fill="#263238"/>
  <path id="Path_3956" data-name="Path 3956" d="M524.645,123.678c.732.983,3.679,0,7.2.116s6.492.848,7.205-.154c.327-.482-.116-1.464-1.406-2.408a10.422,10.422,0,0,0-11.559,0C524.78,122.214,524.337,123.2,524.645,123.678Z" transform="translate(-87.665 15.24)" fill="#263238"/>
  <path id="Path_3957" data-name="Path 3957" d="M549.656,151.246a8.091,8.091,0,0,1-4.046,12.638,4.719,4.719,0,0,1-3.044,0,6.724,6.724,0,0,1-3.237-4.219c-.578-1.406-1.136-2.832-1.7-4.238a1.426,1.426,0,0,1,1.214-2.273l10.48-2.543" transform="translate(-75.803 44.079)" fill="#8b4a41"/>
  <path id="Path_3958" data-name="Path 3958" d="M542.922,164.653a10.037,10.037,0,0,0,5.221-.655,8.149,8.149,0,0,0,4.566-3.7,6.107,6.107,0,0,0,.694-3.564,10.114,10.114,0,0,0-.905-3.66,9.445,9.445,0,0,0-2.158-2.986l-.308-.289-.366.135c-7.61,2.7-13.485,4.046-13.485,4.373s6.184-.482,13.909-3.082l-.674-.154a8.69,8.69,0,0,1,1.927,2.581,6.434,6.434,0,0,1-3.468,9.44C544.926,164.268,542.865,164.4,542.922,164.653Z" transform="translate(-76.891 43.328)" fill="#263238"/>
  <path id="Path_3959" data-name="Path 3959" d="M511.2,141.928a21.057,21.057,0,0,1,8.13-11.674,75.7,75.7,0,0,0,6.858-3.988c4.45-3.6,5.49-9.844,8.226-14.872a23.33,23.33,0,0,1,17.743-11.771c6.107-.616,12.407,1.214,18.359-.289,4.392-1.117,8.245-3.968,12.7-4.816,8.688-1.637,16.76,4.585,23.118,10.788,0,6.222-4.932,10.364-9.632,14.352a21.519,21.519,0,0,1-17.454,4.624c-4.758-.867-9.941-3.275-14.063-.751s-4.489,9.17-8.322,12.5c-5.471,4.739-14.179.289-21.191,2.35-5.375,1.6-8.727,6.723-12.291,11.039s-8.9,8.419-14.275,6.82a62.859,62.859,0,0,1,2.1-14.314Z" transform="translate(-101.98 -8.135)" fill="#263238"/>
  <path id="Path_3960" data-name="Path 3960" d="M544.058,114.472c3.853-1.117,11.867-3.622,13.948-7.012,4.527-7.321,12.522-12.329,20.69-11.886A19.65,19.65,0,0,1,596.38,111.1a28.242,28.242,0,0,1,24.273,15.624,28.888,28.888,0,0,1,1.541,3.622,21.442,21.442,0,0,1,1.425,18.032c-1.349,3.506-3.641,7.417-1.927,10.73s6.492,3.468,10.114,4.72a14.236,14.236,0,0,1,9,15.932c-.5,2.331-1.618,4.662-1.136,7.012s2.6,4.161,4.2,6.068a17.762,17.762,0,0,1-10.422,28.9c-2.755.5-5.78.385-8.168,1.926-2.735,1.7-3.853,5.009-5.779,7.59a15.412,15.412,0,0,1-16.606,5.182,13.483,13.483,0,0,1-3.333-1.676c-1.927,2.581-4.758,4.315-9.748,4.315l1.156-65a5.4,5.4,0,0,1-3.853,3.1c-10.422,2.35-11.944-19.149-9.632-25.044a61.649,61.649,0,0,1-10.461-11.019c-2.87-4.258-5.413-15.855-4.8-21.076C558.429,120.251,542.4,114.973,544.058,114.472Z" transform="translate(-69.704 -6.936)" fill="#263238"/>
  <path id="Path_3961" data-name="Path 3961" d="M566.972,142.092c.327-6.608,8.4-8.014,14.14-4.72,3.14,1.926,5.548,5.471,5.259,12.484-.771,18.706-19.4,14.082-19.4,13.485S566.587,149.8,566.972,142.092Z" transform="translate(-48.522 30.23)" fill="#bf6e65"/>
  <path id="Path_3962" data-name="Path 3962" d="M570,153.568a5.92,5.92,0,0,0,.867.52,3.218,3.218,0,0,0,2.428.154c1.926-.636,3.853-3.718,4.026-7.089a10.926,10.926,0,0,0-.713-4.7,3.852,3.852,0,0,0-2.35-2.6,1.676,1.676,0,0,0-1.927.828c-.27.5-.154.886-.27.905s-.385-.327-.193-1.1a2.042,2.042,0,0,1,.77-1.137,2.505,2.505,0,0,1,1.83-.4,4.566,4.566,0,0,1,3.275,3.044,10.887,10.887,0,0,1,.925,5.259c-.27,3.757-2.35,7.2-5.086,7.879a3.525,3.525,0,0,1-2.967-.617C570,154.031,570,153.607,570,153.568Z" transform="translate(-45.558 33.241)" fill="#8b4a41"/>
  <path id="Path_3963" data-name="Path 3963" d="M557.4,102.75a10.981,10.981,0,0,1,3.718,3.121c1.926,2.562,2.562,7.436,1.387,12.946v.462l.462.116a18.109,18.109,0,0,1,12.04,10.615,13.616,13.616,0,0,1,.963,4.566,26.774,26.774,0,0,1-.578,4.951,35.4,35.4,0,0,0-.713,5.317,8.728,8.728,0,0,0,1.483,5.51c2.331,3.545,6.068,5.279,9.266,6.974a31.131,31.131,0,0,1,8.688,5.683,23.369,23.369,0,0,1,6.993,15.681,24.622,24.622,0,0,1-2.466,11.559c-1.252,2.543-2.292,3.853-2.177,3.853a4.18,4.18,0,0,0,.79-.848,19.943,19.943,0,0,0,1.927-2.774,23.657,23.657,0,0,0,2.928-11.809,24.024,24.024,0,0,0-7.051-16.51,32.275,32.275,0,0,0-8.958-5.991c-3.217-1.676-6.743-3.41-8.765-6.531-2.061-2.832-1.137-6.55-.6-9.9a27.355,27.355,0,0,0,.578-5.182,14.623,14.623,0,0,0-1.1-4.99,18.9,18.9,0,0,0-12.946-11.116l.347.578c1.117-5.779.231-10.827-1.926-13.485a7.706,7.706,0,0,0-3.14-2.312,4.549,4.549,0,0,0-1.156-.482Z" transform="translate(-57.232 -0.262)" fill="#455a64"/>
  <path id="Path_3964" data-name="Path 3964" d="M626.819,249.027a143.048,143.048,0,0,1-13.331,8.823c-3.005,1.291-10.981,8.38-12.907,15.7s-7.109,10.981-8.823,14.41-1.715,17.646-1.5,21.191-10.326,11.559-10.981,13.119-1.5,5.163,1.291,6.03a7.706,7.706,0,0,0,7.321-1.079c1.5-1.5,7.706-6.9,7.706-6.9s-.636,6.685,1.5,7.109a22.572,22.572,0,0,0,5.587,0l7.976-11.828s1.926,8.38,5.375,7.532,5.587-1.734,6.03-6.9a50.449,50.449,0,0,1,2.793-11.4v-4.3s4.508,5.587,7.956,4.739,4.951-2.581,5.163-3.853a70.861,70.861,0,0,0-2.158-13.485,92.152,92.152,0,0,0-4.3-10.75s-1.927-9.478.212-13.119,14.2-13.986,15.7-17.435,3.66-8.611-1.5-10.538S634.255,243.845,626.819,249.027Z" transform="translate(-37.571 123.051)" fill="#bf6e65"/>
  <path id="Path_3965" data-name="Path 3965" d="M590.55,257.917a5.952,5.952,0,0,0,2.293,1.715,17.126,17.126,0,0,0,13.485.809c1.676-.636,2.562-1.31,2.5-1.445a28.557,28.557,0,0,1-9.3,1.194C594.326,259.844,590.723,257.57,590.55,257.917Z" transform="translate(-26.52 143.462)" fill="#8b4a41"/>
  <path id="Path_3966" data-name="Path 3966" d="M587.839,285.26c.289.193,1.927-1.926,3.14-4.951s1.156-5.779.828-5.779-.925,2.447-1.927,5.375S587.55,285.068,587.839,285.26Z" transform="translate(-29.068 158.886)" fill="#8b4a41"/>
  <path id="Path_3967" data-name="Path 3967" d="M595.182,282.707c.289.154,1.637-2.138,2.235-5.3s.25-5.779,0-5.779a25.258,25.258,0,0,0-1.137,5.529C595.605,280.164,594.893,282.572,595.182,282.707Z" transform="translate(-22.29 156.199)" fill="#8b4a41"/>
  <path id="Path_3968" data-name="Path 3968" d="M964.423,565.708c0-3.448-.173-204.205-.424-515.657l.424.424-666.21.077h0l.5-.5V565.708l-.462-.462,666.268.462-666.306.443h-.443V49.55h.443l666.21.1h.347v.4C964.577,361.464,964.423,562.259,964.423,565.708Z" transform="translate(-297.77 -49.55)" fill="#263238"/>
</svg>
