<svg id="Layer_2" data-name="Layer 2" xmlns="http://www.w3.org/2000/svg" width="546.01" height="523.944" viewBox="0 0 546.01 523.944">
  <g id="Layer_1" data-name="Layer 1" transform="translate(0 1)">
    <path id="Path_1097" data-name="Path 1097" d="M285.44,278.139c0-5.666,8.916-10.249,19.906-10.249s19.906,4.583,19.906,10.249-8.916,10.24-19.906,10.24S285.44,283.813,285.44,278.139Z" transform="translate(-47.603 -45.509)" fill="#8dc5e0" fill-rule="evenodd"/>
    <path id="Path_1098" data-name="Path 1098" d="M248.11,563.8l6.041,19.448,25.064-5.724-2.458-24.73Z" transform="translate(-41.377 -93.022)" fill="#ff3274" fill-rule="evenodd"/>
    <path id="Path_1099" data-name="Path 1099" d="M167.533,282.94H548.719a3.683,3.683,0,0,1,3.683,3.683v6.666a3.683,3.683,0,0,1-3.683,3.683H167.533a3.683,3.683,0,0,1-3.683-3.683v-6.666A3.683,3.683,0,0,1,167.533,282.94Z" transform="translate(-27.325 -48.019)" fill="#aadaf1" fill-rule="evenodd"/>
    <path id="Path_1100" data-name="Path 1100" d="M215.116,300.18,138,536.668" transform="translate(-23.014 -50.894)" fill="none" stroke="#aadaf1" stroke-linecap="round" stroke-linejoin="round" stroke-width="2"/>
    <path id="Path_1101" data-name="Path 1101" d="M290.232,300.18,213.15,571.751" transform="translate(-35.547 -50.894)" fill="none" stroke="#aadaf1" stroke-linecap="round" stroke-linejoin="round" stroke-width="2"/>
    <path id="Path_1102" data-name="Path 1102" d="M305.66,300.18l77.074,271.571" transform="translate(-50.975 -50.894)" fill="none" stroke="#aadaf1" stroke-linecap="round" stroke-linejoin="round" stroke-width="2"/>
    <path id="Path_1103" data-name="Path 1103" d="M230.55,300.18l77.074,271.571" transform="translate(-38.449 -50.894)" fill="none" stroke="#aadaf1" stroke-linecap="round" stroke-linejoin="round" stroke-width="2"/>
    <path id="Path_1104" data-name="Path 1104" d="M146.156,537.54l-8.116,18.331,22.464,9.624,10-18.531Z" transform="translate(-23.021 -90.478)" fill="#ff3274" fill-rule="evenodd"/>
    <path id="Path_1105" data-name="Path 1105" d="M135.4,557.51l23.747,10.282s29.6,27.73,43.253,34.488c-.042,6.158-.833,9.016-5.566,10.774-2.116.783-40.37-14.532-40.37-14.532l-6.416-6.883L125.3,580.257Z" transform="translate(-20.896 -93.809)" fill="#6a3416" fill-rule="evenodd"/>
    <path id="Path_1106" data-name="Path 1106" d="M154.63,551.1a3.016,3.016,0,1,1,.883,2.141A3.025,3.025,0,0,1,154.63,551.1Z" transform="translate(-25.788 -92.236)" fill="none" stroke="#fff" stroke-linecap="round" stroke-linejoin="round" stroke-width="2"/>
    <path id="Path_1107" data-name="Path 1107" d="M140.9,555.833a3.033,3.033,0,1,1,3.025,3.033,3.033,3.033,0,0,1-3.025-3.033Z" transform="translate(-23.498 -93.023)" fill="none" stroke="#fff" stroke-linecap="round" stroke-linejoin="round" stroke-width="2"/>
    <path id="Path_1108" data-name="Path 1108" d="M159.72,562.225a3.025,3.025,0,1,1,3.025,3.025A3.025,3.025,0,0,1,159.72,562.225Z" transform="translate(-26.636 -94.091)" fill="none" stroke="#fff" stroke-linecap="round" stroke-linejoin="round" stroke-width="2"/>
    <path id="Path_1109" data-name="Path 1109" d="M121.9,579.512l24.222,10.774a2.6,2.6,0,0,1,1.35,3.408l-2.116,4.758a2.583,2.583,0,0,1-3.433,1.267l-24.239-10.774a2.583,2.583,0,0,1-1.35-3.4l2.108-4.758a2.6,2.6,0,0,1,3.458-1.275Z" transform="translate(-19.366 -97.437)" fill="#3c1b09" fill-rule="evenodd"/>
    <path id="Path_1110" data-name="Path 1110" d="M73.819,325.432c55.168-15.54,134.308-6.932,151.381,16.773,6.1,8.466,4.033,21.714,2.5,26.705s-66.092,143.5-66.092,143.5L132.661,501.4l28.446-112.486S66.961,327.349,73.819,325.432Z" transform="translate(-12.251 -53.799)" fill="#c4c4c4" fill-rule="evenodd"/>
    <path id="Path_1111" data-name="Path 1111" d="M156.81,521.37,190.131,414" transform="translate(-26.151 -69.876)" fill="none" stroke="#8d8d8d" stroke-linecap="round" stroke-linejoin="round" stroke-width="2"/>
    <path id="Path_1112" data-name="Path 1112" d="M148,524.33,179.063,536" transform="translate(-24.682 -88.275)" fill="none" stroke="#8d8d8d" stroke-linecap="round" stroke-linejoin="round" stroke-width="2"/>
    <path id="Path_1113" data-name="Path 1113" d="M254.76,585.621l24.88-7.1s40.47,2.691,55.318-.742c3.875,4.791,5.1,7.5,2.5,11.865-1.142,1.942-40.437,14.348-40.437,14.348l-9.324-1.258-26.322,6.891Z" transform="translate(-42.486 -97.189)" fill="#6a3416" fill-rule="evenodd"/>
    <path id="Path_1114" data-name="Path 1114" d="M257.243,611.934l25.564-7.024a2.583,2.583,0,0,1,3.2,1.766l1.383,5a2.583,2.583,0,0,1-1.85,3.158l-25.564,7.024a2.583,2.583,0,0,1-3.2-1.766l-1.383-5a2.583,2.583,0,0,1,1.85-3.158Z" transform="translate(-42.577 -101.697)" fill="#3c1b09" fill-rule="evenodd"/>
    <path id="Path_1115" data-name="Path 1115" d="M268.1,576.131a3.033,3.033,0,1,1,3.025,3.025A3.033,3.033,0,0,1,268.1,576.131Z" transform="translate(-44.711 -96.407)" fill="none" stroke="#fff" stroke-linecap="round" stroke-linejoin="round" stroke-width="2"/>
    <path id="Path_1116" data-name="Path 1116" d="M274.61,564.391a3.033,3.033,0,1,1,3.025,3.025,3.033,3.033,0,0,1-3.025-3.025Z" transform="translate(-45.796 -94.449)" fill="none" stroke="#fff" stroke-linecap="round" stroke-linejoin="round" stroke-width="2"/>
    <path id="Path_1117" data-name="Path 1117" d="M254.76,573.545a3.025,3.025,0,1,1,3.025,3.025,3.025,3.025,0,0,1-3.025-3.025Z" transform="translate(-42.486 -95.978)" fill="none" stroke="#fff" stroke-linecap="round" stroke-linejoin="round" stroke-width="2"/>
    <path id="Path_1118" data-name="Path 1118" d="M16.356,408.63H142.841A16.356,16.356,0,0,1,159.2,424.986h0a16.356,16.356,0,0,1-16.356,16.356H16.356A16.356,16.356,0,0,1,0,424.986H0A16.356,16.356,0,0,1,16.356,408.63Z" transform="translate(0 -68.98)" fill="#aadaf1" fill-rule="evenodd"/>
    <path id="Path_1119" data-name="Path 1119" d="M88.536,434.48h10.6a3.166,3.166,0,0,1,3.166,3.166V554.8a3.166,3.166,0,0,1-3.166,3.166h-10.6A3.166,3.166,0,0,1,85.37,554.8V437.646A3.166,3.166,0,0,1,88.536,434.48Z" transform="translate(-14.237 -73.291)" fill="#aadaf1" fill-rule="evenodd"/>
    <path id="Path_1120" data-name="Path 1120" d="M83,537.54h19.164a5.216,5.216,0,0,1,5.216,5.216v28.28a5.216,5.216,0,0,1-5.258,5.216H82.956a5.216,5.216,0,0,1-5.216-5.216v-28.28A5.216,5.216,0,0,1,83,537.54Z" transform="translate(-12.965 -90.478)" fill="#aadaf1" fill-rule="evenodd"/>
    <path id="Path_1121" data-name="Path 1121" d="M19.32,604.139v-5.524A14.615,14.615,0,0,1,33.935,584H82.821" transform="translate(-3.222 -98.226)" fill="none" stroke="#aadaf1" stroke-linecap="round" stroke-linejoin="round" stroke-width="2"/>
    <path id="Path_1122" data-name="Path 1122" d="M158.859,604.139v-5.524A14.623,14.623,0,0,0,144.219,584H95.35" transform="translate(-15.901 -98.226)" fill="none" stroke="#aadaf1" stroke-linecap="round" stroke-linejoin="round" stroke-width="2"/>
    <path id="Path_1123" data-name="Path 1123" d="M66.78,604.139v-6.666c0-7.441,3.875-13.473,8.649-13.473h30.613c4.774,0,8.649,6.033,8.649,13.473v6.666" transform="translate(-11.137 -98.226)" fill="none" stroke="#aadaf1" stroke-linecap="round" stroke-linejoin="round" stroke-width="2"/>
    <path id="Path_1124" data-name="Path 1124" d="M9.71,616.187a8.007,8.007,0,1,1,8.007,8.007,8.007,8.007,0,0,1-8.007-8.007Z" transform="translate(-1.619 -102.259)" fill="none" stroke="#aadaf1" stroke-linecap="round" stroke-linejoin="round" stroke-width="2"/>
    <path id="Path_1125" data-name="Path 1125" d="M57.17,616.187a8.007,8.007,0,1,1,8.007,8.007A8.007,8.007,0,0,1,57.17,616.187Z" transform="translate(-9.534 -102.259)" fill="none" stroke="#aadaf1" stroke-linecap="round" stroke-linejoin="round" stroke-width="2"/>
    <path id="Path_1126" data-name="Path 1126" d="M122.677,608.17a8.016,8.016,0,1,1-8.007,8.016,8.016,8.016,0,0,1,8.007-8.016" transform="translate(-19.123 -102.257)" fill="none" stroke="#aadaf1" stroke-linecap="round" stroke-linejoin="round" stroke-width="2"/>
    <path id="Path_1127" data-name="Path 1127" d="M162,616.187a8.007,8.007,0,1,1,8.007,8.007A8.007,8.007,0,0,1,162,616.187Z" transform="translate(-27.017 -102.259)" fill="none" stroke="#aadaf1" stroke-linecap="round" stroke-linejoin="round" stroke-width="2"/>
    <path id="Path_1128" data-name="Path 1128" d="M22.564,287.355C-27.9,392.776,73.958,395.617,109.7,395.092s45.153-3.216,54.827-5.558c3.091,9.366,40.145,130.651,40.145,130.651l32.538-9.832s-24.872-154.081-30.488-164.488C191.3,317.251,100.071,315.7,88.531,316.393S28.963,273.99,22.564,287.355Z" transform="translate(-1.467 -48.326)" fill="#c4c4c4" fill-rule="evenodd"/>
    <path id="Path_1129" data-name="Path 1129" d="M28.061,305.16c-34.571,86.281,113.694,81.082,146.124,71.2,4.849,13.873,44.994,142.824,44.994,142.824" transform="translate(-3.814 -51.724)" fill="none" stroke="#8d8d8d" stroke-linecap="round" stroke-linejoin="round" stroke-width="2"/>
    <path id="Path_1130" data-name="Path 1130" d="M246.564,381.8a47.244,47.244,0,0,1-37.7-44.953" transform="translate(-34.831 -57.009)" fill="none" stroke="#8d8d8d" stroke-linecap="round" stroke-linejoin="round" stroke-width="2"/>
    <path id="Path_1131" data-name="Path 1131" d="M177.07,413.666a144.056,144.056,0,0,0,15.523-3.166c1.283,3.883,8.407,27.022,16.3,52.768" transform="translate(-29.53 -69.292)" fill="none" stroke="#8d8d8d" stroke-linecap="round" stroke-linejoin="round" stroke-width="2"/>
    <path id="Path_1132" data-name="Path 1132" d="M229.5,377.741c-2.716-13.557-5-23.222-6.233-25.572-14.5-26.88-95.955-29.88-115.278-29.563" transform="translate(-18.009 -54.63)" fill="none" stroke="#8d8d8d" stroke-linecap="round" stroke-linejoin="round" stroke-width="2"/>
    <path id="Path_1133" data-name="Path 1133" d="M274.3,544.06,240.52,554.267" transform="translate(-40.111 -91.566)" fill="none" stroke="#8d8d8d" stroke-linecap="round" stroke-linejoin="round" stroke-width="2"/>
    <path id="Path_1134" data-name="Path 1134" d="M98.67,88.225a17.265,17.265,0,1,1,17.256,17.265A17.265,17.265,0,0,1,98.67,88.225Z" transform="translate(-16.455 -12.667)" fill="#6a3416" fill-rule="evenodd"/>
    <path id="Path_1135" data-name="Path 1135" d="M294.386,260.651c2.841-2.333,10.54-8.024,13.007-7.991s9.932,7.049,10.1,8.891-2.208,4.749-3.625,4.958-5.974-4.166-6.974-3.775a13.7,13.7,0,0,0-3.841,3.758C302.41,267.525,291.553,262.942,294.386,260.651Z" transform="translate(-49.016 -42.969)" fill="#f77f89" fill-rule="evenodd"/>
    <path id="Path_1136" data-name="Path 1136" d="M169.345,194.672l17.048,17.4s12.9-27.688,21.881-42.336c-1.816-2.616-5-13.04-4.591-15s9.79-20.439,12.057-19.364a7.178,7.178,0,0,1,3.225,8.332c1.342-4.808,3.608-11.457,5.608-12.115s6.208.208,6.024,3.583c.958-2.208,2.65-3.758,4.583-3.841,1.666-.075,5.066,1.35,5.3,3.45.283,2.625-3.466,8.891-3.925,9.782,1.75-2.383,1.733-2.5,2.783-2.5,2.108.075,5.674,3.208,3.933,7.732s-10.349,25.639-17.015,26.538c.308,4.1-19.556,61.3-19.556,61.3l-30.1-1.2-21.922-29Z" transform="translate(-25.796 -22.734)" fill="#f77f89" fill-rule="evenodd"/>
    <path id="Path_1137" data-name="Path 1137" d="M87.294,131.92c-55.352.067-73.849,129.984-68.067,138.891,4.241,6.533,54.452,25.738,71.658,19.839,6.074-2.083,21.881-34.538,30.83-67.283,9.54-7.832,27.6-22.664,30.538-25.522-.833-6.274-15.34-31.554-30.363-42.753C116.7,143.235,107.067,131.92,87.294,131.92Z" transform="translate(-3.038 -22.833)" fill="#3b4161" fill-rule="evenodd"/>
    <path id="Path_1138" data-name="Path 1138" d="M118.3,233.064s26.422,33.329,33.371,36.037,82.007,1.841,87.489,1.2,4.483,3.541,9.44,3.808c5.133.283,8.091-4.258,8.791-6.549,3.133,3.483,8.657,8.841,12.282,6.974,2.566-1.333,2.6-2.5.833-4.341,2.5,1.441,7.016,3.558,8.841,2.133,2.933-2.283,3.208-4.416,2.216-6.191-3.058-5.491-12.907-13.265-15.248-14.165-2.7-1.067-10.924,1.866-14.881,2.108-17.939,1.108-63.176-10.049-78.015-10.724-2.183-4.166-24.805-31.521-26.555-34.254C140.656,214.408,118.3,233.064,118.3,233.064Z" transform="translate(-19.729 -35.705)" fill="#f77f89" fill-rule="evenodd"/>
    <path id="Path_1139" data-name="Path 1139" d="M109.45,94.6a26.275,26.275,0,1,1,0,.006Z" transform="translate(-18.253 -12.237)" fill="#f77f89" fill-rule="evenodd"/>
    <path id="Path_1140" data-name="Path 1140" d="M111.31,92.925c.108,4.074-8.424,29.838-11.79,34.771,1.666,3.941,17.973,13.823,25.464,11.715.833-5,3.625-15.048,5.349-17.281S111.2,88.817,111.31,92.925Z" transform="translate(-16.597 -16.268)" fill="#f77f89" fill-rule="evenodd"/>
    <path id="Path_1141" data-name="Path 1141" d="M141.125,33.54a17.173,17.173,0,0,0-13.073,6.1A19.579,19.579,0,0,0,102.38,63.745a11.457,11.457,0,0,0-3.7,8.416,11.707,11.707,0,0,0,9.582,11.432c.133-.642.133-1.092.342-1.825.567-1.95,9.049-5.516,10-4.874a6.616,6.616,0,0,0,2.5,1.1,2,2,0,0,0,.233,0,19.748,19.748,0,0,0,17.24-10.207,17.5,17.5,0,0,0,2.575.258A17.265,17.265,0,1,0,158.414,50.78,17.265,17.265,0,0,0,141.125,33.54Z" transform="translate(-16.457 -6.427)" fill="#6a3416" fill-rule="evenodd"/>
    <path id="Path_1142" data-name="Path 1142" d="M101.11,78.764a10.149,10.149,0,1,1,2.964,7.192,10.149,10.149,0,0,1-2.964-7.192Z" transform="translate(-16.862 -12.28)" fill="#f77f89" fill-rule="evenodd"/>
    <path id="Path_1143" data-name="Path 1143" d="M38.569,273.707c-1.092-16.115,14.307-75.982,25.83-93.8" transform="translate(-6.423 -30.837)" fill="none" stroke="#737999" stroke-linecap="round" stroke-linejoin="round" stroke-width="2"/>
    <path id="Path_1144" data-name="Path 1144" d="M79.53,191.38c2.683,5.541,15.956,30.08,27.2,38.737,4.291-4.066,35.221-30.421,35.221-30.421-3.95-7.341-22.939-30.355-29.1-36" transform="translate(-13.263 -28.133)" fill="none" stroke="#737999" stroke-linecap="round" stroke-linejoin="round" stroke-width="2"/>
    <path id="Path_1145" data-name="Path 1145" d="M105.19,230.541l37.179-30.721" transform="translate(-17.542 -34.157)" fill="none" stroke="#737999" stroke-linecap="round" stroke-linejoin="round" stroke-width="2"/>
    <path id="Path_1146" data-name="Path 1146" d="M131.755,150.57a8.04,8.04,0,0,1-1.15,2.3c-4.416,6.166-16.865,5.491-27.8-1.5" transform="translate(-17.144 -25.944)" fill="none" stroke="#737999" stroke-linecap="round" stroke-linejoin="round" stroke-width="2"/>
    <path id="Path_1147" data-name="Path 1147" d="M142.77,159.8a75.175,75.175,0,0,1,3.775,30.513" transform="translate(-23.81 -27.483)" fill="none" stroke="#737999" stroke-linecap="round" stroke-linejoin="round" stroke-width="2"/>
    <path id="Path_1148" data-name="Path 1148" d="M159.2,215.143l14-12.423" transform="translate(-26.55 -34.641)" fill="none" stroke="#737999" stroke-linecap="round" stroke-linejoin="round" stroke-width="2"/>
    <path id="Path_1149" data-name="Path 1149" d="M86,278.936c4.624-.725,29.871-.208,25.205,1.375s-13.4,2.708-9.507,3.625a96.091,96.091,0,0,0,11.34,1.95" transform="translate(-14.342 -47.297)" fill="none" stroke="#737999" stroke-linecap="round" stroke-linejoin="round" stroke-width="2"/>
    <path id="Path_1150" data-name="Path 1150" d="M157.567,100.68c-.258,2.308.25,7.5,1.991,9.765" transform="translate(-26.267 -17.624)" fill="none" stroke="#b5545c" stroke-linecap="round" stroke-linejoin="round" stroke-width="2"/>
    <path id="Path_1151" data-name="Path 1151" d="M140.616,96.445c.833-1.975,2.5-3.166,3.658-2.658s1.391,2.5.533,4.491-2.5,3.166-3.658,2.658S139.749,98.428,140.616,96.445Z" transform="translate(-23.364 -16.454)" fill="#b5545c" fill-rule="evenodd"/>
    <path id="Path_1152" data-name="Path 1152" d="M164.366,101.854c.833-1.975,2.5-3.166,3.658-2.666s1.391,2.5.533,4.491-2.5,3.166-3.658,2.658S163.5,103.82,164.366,101.854Z" transform="translate(-27.324 -17.356)" fill="#b5545c" fill-rule="evenodd"/>
    <path id="Path_1153" data-name="Path 1153" d="M139.416,118.339a8.532,8.532,0,0,1-5.916-7.349" transform="translate(-22.264 -19.343)" fill="none" stroke="#b5545c" stroke-linecap="round" stroke-linejoin="round" stroke-width="2"/>
    <path id="Path_1154" data-name="Path 1154" d="M131.683,128.482A26.23,26.23,0,0,1,114.56,117.05" transform="translate(-19.105 -20.354)" fill="none" stroke="#b5545c" stroke-linecap="round" stroke-linejoin="round" stroke-width="2"/>
    <path id="Path_1155" data-name="Path 1155" d="M116.285,92.2a10,10,0,0,1-3.541.642,10.161,10.161,0,0,1-2.731-.374" transform="translate(-18.347 -16.209)" fill="none" stroke="#b5545c" stroke-linecap="round" stroke-linejoin="round" stroke-width="2"/>
    <path id="Path_1156" data-name="Path 1156" d="M110.063,85.793a5.941,5.941,0,1,1,7.5-5.733" transform="translate(-17.624 -13.194)" fill="none" stroke="#b5545c" stroke-linecap="round" stroke-linejoin="round" stroke-width="2"/>
    <path id="Path_1157" data-name="Path 1157" d="M209.008,250.02l-27.722-4.233-17.206-22.1" transform="translate(-27.363 -38.138)" fill="none" stroke="#b5545c" stroke-linecap="round" stroke-linejoin="round" stroke-width="2"/>
    <path id="Path_1158" data-name="Path 1158" d="M230.424,169.732c1.033-2.25,3.9-7.182,2.908-9.332s-7.857-5.058-7.016-7.116a72.516,72.516,0,0,1,4.658-7.624" transform="translate(-37.731 -25.125)" fill="none" stroke="#b5545c" stroke-linecap="round" stroke-linejoin="round" stroke-width="2"/>
    <path id="Path_1159" data-name="Path 1159" d="M244.688,135.92l-5.258,10.749" transform="translate(-39.93 -23.501)" fill="none" stroke="#b5545c" stroke-linecap="round" stroke-linejoin="round" stroke-width="2"/>
    <path id="Path_1160" data-name="Path 1160" d="M252.384,147.2l-4.274,6.066" transform="translate(-41.377 -25.382)" fill="none" stroke="#b5545c" stroke-linecap="round" stroke-linejoin="round" stroke-width="2"/>
    <path id="Path_1161" data-name="Path 1161" d="M296.59,260.86l7.632,5.833" transform="translate(-49.462 -44.337)" fill="none" stroke="#b5545c" stroke-linecap="round" stroke-linejoin="round" stroke-width="2"/>
    <path id="Path_1162" data-name="Path 1162" d="M299.7,280.946,294,275.68" transform="translate(-49.03 -46.808)" fill="none" stroke="#b5545c" stroke-linecap="round" stroke-linejoin="round" stroke-width="2"/>
    <path id="Path_1166" data-name="Path 1166" d="M24.966,1H227.932a20.606,20.606,0,0,1,20.614,20.614V124.993a20.614,20.614,0,0,1-20.614,20.614H24.966A20.614,20.614,0,0,1,4.36,124.993V21.614A20.606,20.606,0,0,1,24.966,1Z" transform="translate(-0.727 -1)" fill="none" stroke="#9b9b9b" stroke-linecap="round" stroke-linejoin="round" stroke-width="2"/>
    <path id="Path_1167" data-name="Path 1167" d="M247.529,16.87H6.2" transform="translate(-1.034 -3.647)" fill="none" stroke="#9b9b9b" stroke-linecap="round" stroke-linejoin="round" stroke-width="2"/>
    <path id="Path_1168" data-name="Path 1168" d="M22.14,8.641a2.933,2.933,0,1,1,2.933,2.925A2.933,2.933,0,0,1,22.14,8.641Z" transform="translate(-3.692 -1.784)" fill="none" stroke="#ff3274" stroke-linecap="round" stroke-linejoin="round" stroke-width="2"/>
    <path id="Path_1169" data-name="Path 1169" d="M36,8.641a2.925,2.925,0,1,1,.86,2.071A2.933,2.933,0,0,1,36,8.641Z" transform="translate(-6.004 -1.784)" fill="none" stroke="#ff3274" stroke-linecap="round" stroke-linejoin="round" stroke-width="2"/>
    <path id="Path_1170" data-name="Path 1170" d="M49.89,8.641a2.933,2.933,0,1,1,2.933,2.925A2.933,2.933,0,0,1,49.89,8.641Z" transform="translate(-8.32 -1.784)" fill="none" stroke="#ff3274" stroke-linecap="round" stroke-linejoin="round" stroke-width="2"/>
    <path id="Path_1171" data-name="Path 1171" d="M470.772,300.18,393.69,571.751" transform="translate(-65.655 -50.894)" fill="none" stroke="#aadaf1" stroke-linecap="round" stroke-linejoin="round" stroke-width="2"/>
    <path id="Path_1172" data-name="Path 1172" d="M545.882,300.18,468.8,571.751" transform="translate(-78.181 -50.894)" fill="none" stroke="#aadaf1" stroke-linecap="round" stroke-linejoin="round" stroke-width="2"/>
    <path id="Path_1173" data-name="Path 1173" d="M561.31,300.18l77.074,271.571" transform="translate(-93.609 -50.894)" fill="none" stroke="#aadaf1" stroke-linecap="round" stroke-linejoin="round" stroke-width="2"/>
    <path id="Path_1174" data-name="Path 1174" d="M486.2,300.18l77.074,271.571" transform="translate(-81.083 -50.894)" fill="none" stroke="#aadaf1" stroke-linecap="round" stroke-linejoin="round" stroke-width="2"/>
    <path id="Path_1175" data-name="Path 1175" d="M324.137,115.4H443.614a9.324,9.324,0,0,1,9.324,9.324v98.663a9.324,9.324,0,0,1-9.324,9.324H324.137a9.324,9.324,0,0,1-9.307-9.324V124.724A9.324,9.324,0,0,1,324.137,115.4Z" transform="translate(-52.504 -20.078)" fill="#aadaf1" fill-rule="evenodd"/>
    <path id="Path_1176" data-name="Path 1176" d="M324.134,115.39a9.315,9.315,0,0,0-9.324,9.316v98.68a9.324,9.324,0,0,0,9.324,9.282h5.991c-.05-.567-.183-1.117-.183-1.666V115.39Z" transform="translate(-52.501 -20.077)" fill="#8dc5e0" fill-rule="evenodd"/>
    <path id="Path_1177" data-name="Path 1177" d="M377.82,221.28h40.337l22.589,51.377H398.984Z" transform="translate(-63.009 -37.736)" fill="#8dc5e0" fill-rule="evenodd"/>
    <path id="Path_1178" data-name="Path 1178" d="M539.54,239.49h33.229v36.2H539.54Z" transform="translate(-89.979 -40.773)" fill="#8dc5e0" fill-rule="evenodd"/>
    <path id="Path_1179" data-name="Path 1179" d="M568.79,259.494a8.574,8.574,0,1,1,8.574,8.574,8.574,8.574,0,0,1-8.574-8.574Z" transform="translate(-94.857 -42.679)" fill="none" stroke="#8dc5e0" stroke-linecap="round" stroke-linejoin="round" stroke-width="2"/>
    <path id="Path_1180" data-name="Path 1180" d="M539.54,246.89h32.946" transform="translate(-89.979 -42.007)" fill="none" stroke="#aadaf1" stroke-linecap="round" stroke-linejoin="round" stroke-width="2"/>
    <path id="Path_1181" data-name="Path 1181" d="M25.1,1H228.063a20.614,20.614,0,0,1,20.614,20.614V124.993a20.614,20.614,0,0,1-20.614,20.614H25.1A20.614,20.614,0,0,1,4.49,124.993V21.614A20.606,20.606,0,0,1,25.1,1Z" transform="translate(-0.857 -1)" fill="#fff" fill-rule="evenodd" opacity="0.25"/>
  </g>
</svg>
