<svg xmlns="http://www.w3.org/2000/svg" width="41.811" height="41.811" viewBox="0 0 41.811 41.811">
  <g id="Icon_ionic-ios-information-circle-outline" data-name="Icon ionic-ios-information-circle-outline" transform="translate(-3.375 -3.375)">
    <path id="Path_4163" data-name="Path 4163" d="M16.552,12.709a2.071,2.071,0,1,1,2.06,2.01A2.012,2.012,0,0,1,16.552,12.709Zm.141,3.588h3.839V30.78H16.692Z" transform="translate(5.658 3.149)" fill="#7579e7"/>
    <path id="Path_4164" data-name="Path 4164" d="M24.28,6.189a18.084,18.084,0,1,1-12.794,5.3,17.971,17.971,0,0,1,12.794-5.3m0-2.814A20.905,20.905,0,1,0,45.186,24.28,20.9,20.9,0,0,0,24.28,3.375Z" transform="translate(0 0)" fill="#7579e7"/>
  </g>
</svg>
