<svg xmlns="http://www.w3.org/2000/svg" width="28.13" height="25" viewBox="0 0 28.13 25">
  <path id="Icon_awesome-edit" data-name="Icon awesome-edit" d="M19.662,4.065l4.405,4.405a.478.478,0,0,1,0,.674L13.4,19.811l-4.532.5a.95.95,0,0,1-1.05-1.05l.5-4.532L18.988,4.065A.478.478,0,0,1,19.662,4.065Zm7.912-1.118L25.19.564a1.91,1.91,0,0,0-2.7,0L20.766,2.293a.478.478,0,0,0,0,.674l4.405,4.405a.478.478,0,0,0,.674,0l1.729-1.729a1.91,1.91,0,0,0,0-2.7ZM18.754,16.91v4.972H3.126V6.253H14.349a.6.6,0,0,0,.415-.171l1.954-1.954a.586.586,0,0,0-.415-1H2.344A2.345,2.345,0,0,0,0,5.472V22.663a2.345,2.345,0,0,0,2.344,2.344H19.535a2.345,2.345,0,0,0,2.344-2.344V14.956a.587.587,0,0,0-1-.415l-1.954,1.954A.6.6,0,0,0,18.754,16.91Z" transform="translate(0 -0.007)" fill="#7579e7"/>
</svg>
